DinishExpanded-Regular.ufo
<glyph name="parenleft" format="2">
  <advance width="320"/>
  <unicode hex="0028"/>
  <outline>
    <contour>
      <point x="53" y="336" type="curve" smooth="yes"/>
      <point x="53" y="413"/>
      <point x="65" y="488"/>
      <point x="89" y="559" type="curve" smooth="yes"/>
      <point x="113" y="630"/>
      <point x="148" y="697"/>
      <point x="195" y="758" type="curve"/>
      <point x="267" y="758" type="line"/>
      <point x="227" y="698"/>
      <point x="196" y="631"/>
      <point x="174" y="558" type="curve" smooth="yes"/>
      <point x="151" y="484"/>
      <point x="140" y="410"/>
      <point x="140" y="336" type="curve" smooth="yes"/>
      <point x="140" y="261"/>
      <point x="151" y="186"/>
      <point x="174" y="113" type="curve" smooth="yes"/>
      <point x="196" y="40"/>
      <point x="227" y="-27"/>
      <point x="267" y="-86" type="curve"/>
      <point x="194" y="-86" type="line"/>
      <point x="147" y="-23"/>
      <point x="112" y="44"/>
      <point x="89" y="115" type="curve" smooth="yes"/>
      <point x="65" y="186"/>
      <point x="53" y="259"/>
    </contour>
  </outline>
</glyph>
<glyph name="parenright" format="2">
  <advance width="320"/>
  <unicode hex="0029"/>
  <outline>
    <contour>
      <point x="180" y="336" type="curve" smooth="yes"/>
      <point x="180" y="411"/>
      <point x="169" y="485"/>
      <point x="147" y="558" type="curve" smooth="yes"/>
      <point x="125" y="631"/>
      <point x="94" y="698"/>
      <point x="53" y="758" type="curve"/>
      <point x="126" y="758" type="line"/>
      <point x="173" y="697"/>
      <point x="208" y="630"/>
      <point x="232" y="559" type="curve" smooth="yes"/>
      <point x="255" y="488"/>
      <point x="267" y="413"/>
      <point x="267" y="336" type="curve" smooth="yes"/>
      <point x="267" y="259"/>
      <point x="255" y="186"/>
      <point x="232" y="115" type="curve" smooth="yes"/>
      <point x="209" y="44"/>
      <point x="174" y="-23"/>
      <point x="127" y="-86" type="curve"/>
      <point x="53" y="-86" type="line"/>
      <point x="94" y="-27"/>
      <point x="125" y="40"/>
      <point x="147" y="113" type="curve" smooth="yes"/>
      <point x="169" y="186"/>
      <point x="180" y="261"/>
    </contour>
  </outline>
</glyph>
<glyph name="one.osf" format="2">
  <advance width="370"/>
  <unicode hex="0031"/>
  <outline>
    <contour>
      <point x="197" y="421" type="line"/>
      <point x="46" y="327" type="line"/>
      <point x="46" y="426" type="line"/>
      <point x="197" y="523" type="line"/>
      <point x="290" y="523" type="line"/>
      <point x="290" y="0" type="line"/>
      <point x="197" y="0" type="line"/>
    </contour>
  </outline>
</glyph>
<glyph name="one.tosf" format="2">
  <advance width="562"/>
  <unicode hex="0031"/>
  <outline>
    <contour>
      <point x="305" y="420" type="line"/>
      <point x="106" y="326" type="line"/>
      <point x="106" y="425" type="line"/>
      <point x="304" y="523" type="line"/>
      <point x="397" y="523" type="line"/>
      <point x="397" y="0" type="line"/>
      <point x="305" y="0" type="line"/>
    </contour>
  </outline>
</glyph>
<glyph name="three" format="2">
  <advance width="562"/>
  <unicode hex="0033"/>
  <outline>
    <contour>
      <point x="57" y="85"/>
      <point x="57" y="171" type="qcurve" smooth="yes"/>
      <point x="57" y="181" type="line"/>
      <point x="147" y="181" type="line"/>
      <point x="147" y="172" type="line" smooth="yes"/>
      <point x="147" y="123"/>
      <point x="214" y="71"/>
      <point x="278" y="71" type="qcurve" smooth="yes"/>
      <point x="341" y="71"/>
      <point x="409" y="132"/>
      <point x="409" y="188" type="qcurve" smooth="yes"/>
      <point x="409" y="208" type="line" smooth="yes"/>
      <point x="409" y="265"/>
      <point x="338" y="325"/>
      <point x="269" y="325" type="qcurve" smooth="yes"/>
      <point x="227" y="325" type="line"/>
      <point x="227" y="407" type="line"/>
      <point x="268" y="407" type="line" smooth="yes"/>
      <point x="330" y="407"/>
      <point x="396" y="464"/>
      <point x="396" y="516" type="qcurve" smooth="yes"/>
      <point x="396" y="530" type="line" smooth="yes"/>
      <point x="396" y="581"/>
      <point x="334" y="636"/>
      <point x="274" y="636" type="qcurve" smooth="yes"/>
      <point x="215" y="636"/>
      <point x="154" y="583"/>
      <point x="154" y="532" type="qcurve" smooth="yes"/>
      <point x="154" y="522" type="line"/>
      <point x="66" y="522" type="line"/>
      <point x="66" y="534" type="line" smooth="yes"/>
      <point x="66" y="620"/>
      <point x="177" y="717"/>
      <point x="278" y="717" type="qcurve" smooth="yes"/>
      <point x="377" y="717"/>
      <point x="488" y="622"/>
      <point x="488" y="537" type="qcurve" smooth="yes"/>
      <point x="488" y="521" type="line" smooth="yes"/>
      <point x="488" y="468"/>
      <point x="434" y="393"/>
      <point x="387" y="374" type="qcurve"/>
      <point x="443" y="356"/>
      <point x="502" y="269"/>
      <point x="502" y="207" type="qcurve" smooth="yes"/>
      <point x="502" y="188" type="line" smooth="yes"/>
      <point x="502" y="96"/>
      <point x="381" y="-10"/>
      <point x="276" y="-10" type="qcurve" smooth="yes"/>
      <point x="173" y="-10"/>
    </contour>
  </outline>
</glyph>
<glyph name="four.tosf" format="2">
  <advance width="562"/>
  <unicode hex="0034"/>
  <outline>
    <contour>
      <point x="543" y="-35" type="line"/>
      <point x="458" y="-35" type="line"/>
      <point x="458" y="-166" type="line"/>
      <point x="364" y="-166" type="line"/>
      <point x="364" y="-35" type="line"/>
      <point x="52" y="-35" type="line"/>
      <point x="52" y="48" type="line"/>
      <point x="293" y="541" type="line"/>
      <point x="388" y="541" type="line"/>
      <point x="147" y="48" type="line"/>
      <point x="364" y="48" type="line"/>
      <point x="364" y="231" type="line"/>
      <point x="458" y="231" type="line"/>
      <point x="458" y="48" type="line"/>
      <point x="543" y="48" type="line"/>
    </contour>
  </outline>
</glyph>
<glyph name="five.tosf" format="2">
  <advance width="562"/>
  <unicode hex="0035"/>
  <outline>
    <contour>
      <point x="68" y="-76"/>
      <point x="68" y="3" type="qcurve" smooth="yes"/>
      <point x="68" y="11" type="line"/>
      <point x="158" y="11" type="line"/>
      <point x="158" y="6" type="line" smooth="yes"/>
      <point x="158" y="-37"/>
      <point x="219" y="-94"/>
      <point x="278" y="-94" type="qcurve" smooth="yes"/>
      <point x="402" y="-94"/>
      <point x="402" y="44" type="qcurve" smooth="yes"/>
      <point x="402" y="72" type="line" smooth="yes"/>
      <point x="402" y="141"/>
      <point x="341" y="211"/>
      <point x="281" y="211" type="qcurve" smooth="yes"/>
      <point x="241" y="211"/>
      <point x="184" y="175"/>
      <point x="170" y="141" type="qcurve"/>
      <point x="80" y="141" type="line"/>
      <point x="80" y="523" type="line"/>
      <point x="475" y="523" type="line"/>
      <point x="475" y="440" type="line"/>
      <point x="163" y="440" type="line"/>
      <point x="163" y="241" type="line"/>
      <point x="187" y="265"/>
      <point x="258" y="292"/>
      <point x="298" y="292" type="qcurve" smooth="yes"/>
      <point x="391" y="292"/>
      <point x="494" y="179"/>
      <point x="494" y="76" type="qcurve" smooth="yes"/>
      <point x="494" y="40" type="line" smooth="yes"/>
      <point x="494" y="-62"/>
      <point x="380" y="-176"/>
      <point x="276" y="-176" type="qcurve" smooth="yes"/>
      <point x="177" y="-176"/>
    </contour>
  </outline>
</glyph>
<glyph name="six" format="2">
  <advance width="565"/>
  <unicode hex="0036"/>
  <outline>
    <contour>
      <point x="56" y="102"/>
      <point x="56" y="197" type="qcurve" smooth="yes"/>
      <point x="56" y="219" type="line" smooth="yes"/>
      <point x="56" y="269"/>
      <point x="88" y="359"/>
      <point x="126" y="418" type="qcurve" smooth="yes"/>
      <point x="299" y="707" type="line"/>
      <point x="400" y="707" type="line"/>
      <point x="220" y="410" type="line"/>
      <point x="234" y="418"/>
      <point x="281" y="428"/>
      <point x="308" y="428" type="qcurve" smooth="yes"/>
      <point x="366" y="428"/>
      <point x="459" y="376"/>
      <point x="511" y="284"/>
      <point x="511" y="225" type="qcurve" smooth="yes"/>
      <point x="511" y="201" type="line" smooth="yes"/>
      <point x="511" y="104"/>
      <point x="387" y="-10"/>
      <point x="284" y="-10" type="qcurve" smooth="yes"/>
      <point x="179" y="-10"/>
    </contour>
    <contour>
      <point x="419" y="139"/>
      <point x="419" y="198" type="qcurve" smooth="yes"/>
      <point x="419" y="221" type="line" smooth="yes"/>
      <point x="419" y="278"/>
      <point x="346" y="346"/>
      <point x="283" y="346" type="qcurve" smooth="yes"/>
      <point x="221" y="346"/>
      <point x="150" y="280"/>
      <point x="150" y="220" type="qcurve" smooth="yes"/>
      <point x="150" y="197" type="line" smooth="yes"/>
      <point x="150" y="139"/>
      <point x="222" y="71"/>
      <point x="284" y="71" type="qcurve" smooth="yes"/>
      <point x="346" y="71"/>
    </contour>
  </outline>
</glyph>
<glyph name="equal" format="2">
  <advance width="521"/>
  <unicode hex="003D"/>
  <outline>
    <contour>
      <point x="54" y="410" type="line"/>
      <point x="466" y="410" type="line"/>
      <point x="466" y="327" type="line"/>
      <point x="54" y="327" type="line"/>
    </contour>
    <contour>
      <point x="54" y="238" type="line"/>
      <point x="466" y="238" type="line"/>
      <point x="466" y="156" type="line"/>
      <point x="54" y="156" type="line"/>
    </contour>
  </outline>
</glyph>
<glyph name="G" format="2">
  <advance width="696"/>
  <unicode hex="0047"/>
  <outline>
    <contour>
      <point x="62" y="302" type="curve" smooth="yes"/>
      <point x="62" y="406" type="line" smooth="yes"/>
      <point x="62" y="509"/>
      <point x="88" y="587"/>
      <point x="140" y="639" type="curve" smooth="yes"/>
      <point x="191" y="691"/>
      <point x="264" y="717"/>
      <point x="359" y="717" type="curve" smooth="yes"/>
      <point x="444" y="717"/>
      <point x="511" y="697"/>
      <point x="561" y="657" type="curve" smooth="yes"/>
      <point x="610" y="616"/>
      <point x="635" y="562"/>
      <point x="635" y="493" type="curve" smooth="yes"/>
      <point x="635" y="487" type="line"/>
      <point x="543" y="487" type="line"/>
      <point x="543" y="492" type="line" smooth="yes"/>
      <point x="543" y="536"/>
      <point x="527" y="571"/>
      <point x="495" y="596" type="curve" smooth="yes"/>
      <point x="462" y="621"/>
      <point x="417" y="633"/>
      <point x="359" y="633" type="curve" smooth="yes"/>
      <point x="290" y="633"/>
      <point x="239" y="614"/>
      <point x="206" y="577" type="curve" smooth="yes"/>
      <point x="173" y="539"/>
      <point x="156" y="480"/>
      <point x="156" y="400" type="curve" smooth="yes"/>
      <point x="156" y="301" type="line" smooth="yes"/>
      <point x="156" y="224"/>
      <point x="173" y="167"/>
      <point x="207" y="130" type="curve" smooth="yes"/>
      <point x="240" y="93"/>
      <point x="291" y="75"/>
      <point x="360" y="75" type="curve" smooth="yes"/>
      <point x="482" y="75"/>
      <point x="543" y="133"/>
      <point x="544" y="248" type="curve" smooth="yes"/>
      <point x="544" y="290" type="line"/>
      <point x="348" y="290" type="line"/>
      <point x="348" y="369" type="line"/>
      <point x="636" y="369" type="line"/>
      <point x="636" y="254" type="line" smooth="yes"/>
      <point x="636" y="168"/>
      <point x="611" y="103"/>
      <point x="562" y="58" type="curve" smooth="yes"/>
      <point x="513" y="13"/>
      <point x="445" y="-9"/>
      <point x="359" y="-9" type="curve" smooth="yes"/>
      <point x="264" y="-9"/>
      <point x="191" y="17"/>
      <point x="140" y="69" type="curve" smooth="yes"/>
      <point x="88" y="121"/>
      <point x="62" y="199"/>
    </contour>
  </outline>
</glyph>
<glyph name="J" format="2">
  <advance width="353"/>
  <unicode hex="004A"/>
  <outline>
    <contour>
      <point x="30" y="83" type="line"/>
      <point x="93" y="83" type="line" smooth="yes"/>
      <point x="124" y="83"/>
      <point x="147" y="90"/>
      <point x="160" y="103" type="curve" smooth="yes"/>
      <point x="173" y="116"/>
      <point x="179" y="139"/>
      <point x="179" y="171" type="curve" smooth="yes"/>
      <point x="179" y="707" type="line"/>
      <point x="272" y="707" type="line"/>
      <point x="272" y="159" type="line" smooth="yes"/>
      <point x="272" y="106"/>
      <point x="259" y="66"/>
      <point x="233" y="40" type="curve" smooth="yes"/>
      <point x="206" y="13"/>
      <point x="166" y="0"/>
      <point x="112" y="0" type="curve" smooth="yes"/>
      <point x="30" y="0" type="line"/>
    </contour>
  </outline>
</glyph>
<glyph name="R" format="2">
  <advance width="680"/>
  <unicode hex="0052"/>
  <outline>
    <contour>
      <point x="372" y="301" type="line"/>
      <point x="167" y="301" type="line"/>
      <point x="167" y="0" type="line"/>
      <point x="74" y="0" type="line"/>
      <point x="74" y="707" type="line"/>
      <point x="382" y="707" type="line" smooth="yes"/>
      <point x="460" y="707"/>
      <point x="520" y="690"/>
      <point x="561" y="655" type="curve" smooth="yes"/>
      <point x="602" y="620"/>
      <point x="623" y="569"/>
      <point x="623" y="504" type="curve" smooth="yes"/>
      <point x="623" y="453"/>
      <point x="610" y="411"/>
      <point x="584" y="378" type="curve" smooth="yes"/>
      <point x="557" y="345"/>
      <point x="519" y="322"/>
      <point x="468" y="310" type="curve"/>
      <point x="643" y="0" type="line"/>
      <point x="537" y="0" type="line"/>
    </contour>
    <contour>
      <point x="167" y="382" type="line"/>
      <point x="384" y="382" type="line" smooth="yes"/>
      <point x="434" y="382"/>
      <point x="471" y="392"/>
      <point x="494" y="412" type="curve" smooth="yes"/>
      <point x="517" y="431"/>
      <point x="529" y="462"/>
      <point x="529" y="504" type="curve" smooth="yes"/>
      <point x="529" y="545"/>
      <point x="517" y="575"/>
      <point x="492" y="595" type="curve" smooth="yes"/>
      <point x="467" y="614"/>
      <point x="429" y="624"/>
      <point x="378" y="624" type="curve" smooth="yes"/>
      <point x="167" y="624" type="line"/>
    </contour>
  </outline>
</glyph>
<glyph name="a" format="2">
  <advance width="562"/>
  <unicode hex="0061"/>
  <outline>
    <contour>
      <point x="494" y="342" type="curve" smooth="yes"/>
      <point x="494" y="0" type="line"/>
      <point x="409" y="0" type="line"/>
      <point x="409" y="59" type="line"/>
      <point x="373" y="15"/>
      <point x="316" y="-7"/>
      <point x="238" y="-6" type="curve" smooth="yes"/>
      <point x="175" y="-6"/>
      <point x="126" y="8"/>
      <point x="93" y="35" type="curve" smooth="yes"/>
      <point x="60" y="62"/>
      <point x="43" y="101"/>
      <point x="43" y="152" type="curve" smooth="yes"/>
      <point x="43" y="201"/>
      <point x="60" y="239"/>
      <point x="94" y="265" type="curve" smooth="yes"/>
      <point x="128" y="291"/>
      <point x="178" y="304"/>
      <point x="244" y="304" type="curve" smooth="yes"/>
      <point x="407" y="304" type="line"/>
      <point x="407" y="340" type="line" smooth="yes"/>
      <point x="407" y="419"/>
      <point x="361" y="459"/>
      <point x="268" y="459" type="curve" smooth="yes"/>
      <point x="228" y="459"/>
      <point x="198" y="452"/>
      <point x="177" y="437" type="curve" smooth="yes"/>
      <point x="156" y="422"/>
      <point x="145" y="400"/>
      <point x="145" y="373" type="curve" smooth="yes"/>
      <point x="145" y="370" type="line"/>
      <point x="60" y="370" type="line"/>
      <point x="60" y="373" type="line" smooth="yes"/>
      <point x="60" y="422"/>
      <point x="79" y="461"/>
      <point x="116" y="489" type="curve" smooth="yes"/>
      <point x="153" y="517"/>
      <point x="203" y="531"/>
      <point x="267" y="531" type="curve" smooth="yes"/>
      <point x="340" y="531"/>
      <point x="397" y="515"/>
      <point x="436" y="483" type="curve" smooth="yes"/>
      <point x="475" y="450"/>
      <point x="494" y="403"/>
    </contour>
    <contour>
      <point x="407" y="198" type="curve" smooth="yes"/>
      <point x="407" y="239" type="line"/>
      <point x="258" y="239" type="line" smooth="yes"/>
      <point x="213" y="239"/>
      <point x="181" y="232"/>
      <point x="160" y="218" type="curve" smooth="yes"/>
      <point x="139" y="204"/>
      <point x="129" y="182"/>
      <point x="129" y="153" type="curve" smooth="yes"/>
      <point x="129" y="123"/>
      <point x="139" y="101"/>
      <point x="160" y="87" type="curve" smooth="yes"/>
      <point x="180" y="72"/>
      <point x="212" y="65"/>
      <point x="255" y="65" type="curve" smooth="yes"/>
      <point x="307" y="65"/>
      <point x="345" y="76"/>
      <point x="370" y="98" type="curve" smooth="yes"/>
      <point x="395" y="119"/>
      <point x="407" y="153"/>
    </contour>
  </outline>
</glyph>
<glyph name="g" format="2">
  <advance width="593"/>
  <unicode hex="0067"/>
  <outline>
    <contour>
      <point x="65" y="-16" type="curve"/>
      <point x="150" y="-16" type="line"/>
      <point x="156" y="-41"/>
      <point x="170" y="-60"/>
      <point x="192" y="-72" type="curve" smooth="yes"/>
      <point x="213" y="-84"/>
      <point x="245" y="-90"/>
      <point x="286" y="-90" type="curve" smooth="yes"/>
      <point x="338" y="-90"/>
      <point x="376" y="-79"/>
      <point x="401" y="-58" type="curve" smooth="yes"/>
      <point x="426" y="-37"/>
      <point x="438" y="-5"/>
      <point x="438" y="39" type="curve" smooth="yes"/>
      <point x="438" y="94" type="line"/>
      <point x="421" y="68"/>
      <point x="398" y="48"/>
      <point x="370" y="35" type="curve" smooth="yes"/>
      <point x="341" y="22"/>
      <point x="308" y="15"/>
      <point x="270" y="15" type="curve" smooth="yes"/>
      <point x="204" y="15"/>
      <point x="151" y="36"/>
      <point x="112" y="77" type="curve" smooth="yes"/>
      <point x="73" y="118"/>
      <point x="53" y="177"/>
      <point x="53" y="253" type="curve" smooth="yes"/>
      <point x="53" y="293" type="line" smooth="yes"/>
      <point x="53" y="370"/>
      <point x="73" y="430"/>
      <point x="112" y="472" type="curve" smooth="yes"/>
      <point x="151" y="514"/>
      <point x="203" y="535"/>
      <point x="268" y="535" type="curve" smooth="yes"/>
      <point x="305" y="535"/>
      <point x="338" y="528"/>
      <point x="368" y="514" type="curve" smooth="yes"/>
      <point x="398" y="500"/>
      <point x="421" y="481"/>
      <point x="438" y="456" type="curve"/>
      <point x="438" y="524" type="line"/>
      <point x="524" y="524" type="line"/>
      <point x="524" y="45" type="line" smooth="yes"/>
      <point x="524" y="-22"/>
      <point x="503" y="-73"/>
      <point x="462" y="-109" type="curve" smooth="yes"/>
      <point x="421" y="-146"/>
      <point x="362" y="-164"/>
      <point x="285" y="-164" type="curve" smooth="yes"/>
      <point x="218" y="-164"/>
      <point x="165" y="-151"/>
      <point x="128" y="-126" type="curve" smooth="yes"/>
      <point x="90" y="-101"/>
      <point x="69" y="-65"/>
    </contour>
    <contour>
      <point x="438" y="251" type="curve" smooth="yes"/>
      <point x="438" y="299" type="line" smooth="yes"/>
      <point x="438" y="348"/>
      <point x="425" y="386"/>
      <point x="398" y="415" type="curve" smooth="yes"/>
      <point x="371" y="444"/>
      <point x="333" y="458"/>
      <point x="286" y="458" type="curve" smooth="yes"/>
      <point x="239" y="458"/>
      <point x="203" y="444"/>
      <point x="178" y="416" type="curve" smooth="yes"/>
      <point x="153" y="387"/>
      <point x="140" y="345"/>
      <point x="140" y="288" type="curve" smooth="yes"/>
      <point x="140" y="258" type="line" smooth="yes"/>
      <point x="140" y="203"/>
      <point x="153" y="162"/>
      <point x="179" y="135" type="curve" smooth="yes"/>
      <point x="204" y="107"/>
      <point x="240" y="93"/>
      <point x="286" y="93" type="curve" smooth="yes"/>
      <point x="335" y="93"/>
      <point x="372" y="107"/>
      <point x="399" y="134" type="curve" smooth="yes"/>
      <point x="425" y="161"/>
      <point x="438" y="200"/>
    </contour>
  </outline>
</glyph>
<glyph name="l" format="2">
  <advance width="309"/>
  <unicode hex="006C"/>
  <outline>
    <contour>
      <point x="69" y="158" type="curve" smooth="yes"/>
      <point x="69" y="707" type="line"/>
      <point x="156" y="707" type="line"/>
      <point x="156" y="163" type="line" smooth="yes"/>
      <point x="156" y="132"/>
      <point x="162" y="111"/>
      <point x="175" y="98" type="curve" smooth="yes"/>
      <point x="188" y="85"/>
      <point x="210" y="78"/>
      <point x="241" y="78" type="curve" smooth="yes"/>
      <point x="286" y="78" type="line"/>
      <point x="286" y="0" type="line"/>
      <point x="229" y="0" type="line" smooth="yes"/>
      <point x="174" y="0"/>
      <point x="134" y="13"/>
      <point x="108" y="39" type="curve" smooth="yes"/>
      <point x="82" y="64"/>
      <point x="69" y="104"/>
    </contour>
  </outline>
</glyph>
<glyph name="s" format="2">
  <advance width="529"/>
  <unicode hex="0073"/>
  <outline>
    <contour>
      <point x="43" y="81"/>
      <point x="43" y="157" type="qcurve" smooth="yes"/>
      <point x="43" y="160" type="line"/>
      <point x="126" y="160" type="line"/>
      <point x="126" y="158" type="line" smooth="yes"/>
      <point x="126" y="116"/>
      <point x="196" y="67"/>
      <point x="268" y="67" type="qcurve" smooth="yes"/>
      <point x="334" y="67"/>
      <point x="409" y="110"/>
      <point x="409" y="151" type="qcurve" smooth="yes"/>
      <point x="409" y="185"/>
      <point x="354" y="219"/>
      <point x="295" y="225" type="qcurve" smooth="yes"/>
      <point x="220" y="234" type="line" smooth="yes"/>
      <point x="133" y="244"/>
      <point x="51" y="313"/>
      <point x="51" y="376" type="qcurve" smooth="yes"/>
      <point x="51" y="449"/>
      <point x="166" y="531"/>
      <point x="264" y="531" type="qcurve" smooth="yes"/>
      <point x="366" y="531"/>
      <point x="483" y="447"/>
      <point x="483" y="376" type="qcurve" smooth="yes"/>
      <point x="483" y="372" type="line"/>
      <point x="400" y="372" type="line"/>
      <point x="400" y="375" type="line" smooth="yes"/>
      <point x="400" y="417"/>
      <point x="330" y="461"/>
      <point x="265" y="461" type="qcurve" smooth="yes"/>
      <point x="199" y="461"/>
      <point x="134" y="420"/>
      <point x="134" y="382" type="qcurve" smooth="yes"/>
      <point x="134" y="349"/>
      <point x="181" y="315"/>
      <point x="239" y="309" type="qcurve" smooth="yes"/>
      <point x="318" y="299" type="line" smooth="yes"/>
      <point x="406" y="289"/>
      <point x="492" y="219"/>
      <point x="492" y="156" type="qcurve" smooth="yes"/>
      <point x="492" y="79"/>
      <point x="370" y="-6"/>
      <point x="264" y="-6" type="qcurve" smooth="yes"/>
      <point x="160" y="-6"/>
    </contour>
  </outline>
</glyph>
<glyph name="y" format="2">
  <advance width="525"/>
  <unicode hex="0079"/>
  <outline>
    <contour>
      <point x="512" y="524" type="line"/>
      <point x="286" y="-52" type="line" smooth="yes"/>
      <point x="271" y="-89"/>
      <point x="250" y="-115"/>
      <point x="223" y="-132" type="curve" smooth="yes"/>
      <point x="196" y="-149"/>
      <point x="160" y="-157"/>
      <point x="116" y="-157" type="curve" smooth="yes"/>
      <point x="79" y="-157" type="line"/>
      <point x="79" y="-78" type="line"/>
      <point x="116" y="-78" type="line" smooth="yes"/>
      <point x="147" y="-78"/>
      <point x="170" y="-73"/>
      <point x="185" y="-64" type="curve" smooth="yes"/>
      <point x="200" y="-55"/>
      <point x="211" y="-40"/>
      <point x="219" y="-17" type="curve" smooth="yes"/>
      <point x="225" y="0" type="line"/>
      <point x="13" y="524" type="line"/>
      <point x="106" y="524" type="line"/>
      <point x="267" y="112" type="line"/>
      <point x="421" y="524" type="line"/>
    </contour>
  </outline>
</glyph>
<glyph name="asciitilde" format="2">
  <advance width="521"/>
  <unicode hex="007E"/>
  <outline>
    <contour>
      <point x="44" y="251" type="line"/>
      <point x="59" y="284"/>
      <point x="78" y="308"/>
      <point x="101" y="325" type="curve" smooth="yes"/>
      <point x="124" y="342"/>
      <point x="149" y="350"/>
      <point x="177" y="350" type="curve" smooth="yes"/>
      <point x="195" y="350"/>
      <point x="211" y="347"/>
      <point x="226" y="341" type="curve" smooth="yes"/>
      <point x="240" y="335"/>
      <point x="255" y="326"/>
      <point x="272" y="315" type="curve" smooth="yes"/>
      <point x="289" y="306"/>
      <point x="303" y="299"/>
      <point x="312" y="295" type="curve" smooth="yes"/>
      <point x="321" y="291"/>
      <point x="331" y="289"/>
      <point x="341" y="289" type="curve" smooth="yes"/>
      <point x="357" y="289"/>
      <point x="371" y="293"/>
      <point x="382" y="302" type="curve" smooth="yes"/>
      <point x="393" y="311"/>
      <point x="404" y="326"/>
      <point x="417" y="349" type="curve"/>
      <point x="476" y="312" type="line"/>
      <point x="461" y="279"/>
      <point x="442" y="255"/>
      <point x="419" y="238" type="curve" smooth="yes"/>
      <point x="396" y="221"/>
      <point x="370" y="212"/>
      <point x="342" y="212" type="curve" smooth="yes"/>
      <point x="325" y="212"/>
      <point x="309" y="215"/>
      <point x="295" y="221" type="curve" smooth="yes"/>
      <point x="281" y="226"/>
      <point x="265" y="235"/>
      <point x="247" y="247" type="curve" smooth="yes"/>
      <point x="232" y="256"/>
      <point x="220" y="263"/>
      <point x="210" y="268" type="curve" smooth="yes"/>
      <point x="200" y="272"/>
      <point x="190" y="274"/>
      <point x="179" y="274" type="curve" smooth="yes"/>
      <point x="163" y="274"/>
      <point x="150" y="270"/>
      <point x="139" y="262" type="curve" smooth="yes"/>
      <point x="128" y="253"/>
      <point x="117" y="238"/>
      <point x="104" y="215" type="curve"/>
    </contour>
  </outline>
</glyph>
<glyph name="sterling" format="2">
  <advance width="513"/>
  <unicode hex="00A3"/>
  <outline>
    <contour>
      <point x="482" y="84" type="line"/>
      <point x="482" y="0" type="line"/>
      <point x="55" y="0" type="line"/>
      <point x="55" y="79" type="line"/>
      <point x="74" y="88"/>
      <point x="88" y="100"/>
      <point x="97" y="116" type="curve" smooth="yes"/>
      <point x="105" y="131"/>
      <point x="109" y="153"/>
      <point x="109" y="180" type="curve" smooth="yes"/>
      <point x="109" y="294" type="line"/>
      <point x="32" y="294" type="line"/>
      <point x="32" y="376" type="line"/>
      <point x="109" y="376" type="line"/>
      <point x="109" y="514" type="line" smooth="yes"/>
      <point x="109" y="579"/>
      <point x="125" y="630"/>
      <point x="157" y="665" type="curve" smooth="yes"/>
      <point x="189" y="700"/>
      <point x="236" y="717"/>
      <point x="297" y="717" type="curve" smooth="yes"/>
      <point x="356" y="717"/>
      <point x="401" y="702"/>
      <point x="432" y="673" type="curve" smooth="yes"/>
      <point x="463" y="643"/>
      <point x="479" y="600"/>
      <point x="479" y="545" type="curve"/>
      <point x="390" y="545" type="line"/>
      <point x="390" y="576"/>
      <point x="382" y="598"/>
      <point x="367" y="613" type="curve" smooth="yes"/>
      <point x="352" y="628"/>
      <point x="328" y="635"/>
      <point x="296" y="635" type="curve" smooth="yes"/>
      <point x="233" y="635"/>
      <point x="202" y="599"/>
      <point x="202" y="526" type="curve" smooth="yes"/>
      <point x="202" y="376" type="line"/>
      <point x="376" y="376" type="line"/>
      <point x="376" y="294" type="line"/>
      <point x="202" y="294" type="line"/>
      <point x="202" y="190" type="line" smooth="yes"/>
      <point x="202" y="166"/>
      <point x="199" y="146"/>
      <point x="193" y="129" type="curve" smooth="yes"/>
      <point x="186" y="112"/>
      <point x="177" y="97"/>
      <point x="164" y="84" type="curve"/>
    </contour>
  </outline>
</glyph>
<glyph name="section" format="2">
  <advance width="572"/>
  <unicode hex="00A7"/>
  <outline>
    <contour>
      <point x="89" y="-1" type="curve"/>
      <point x="173" y="-1" type="line"/>
      <point x="173" y="-64"/>
      <point x="210" y="-95"/>
      <point x="284" y="-95" type="curve" smooth="yes"/>
      <point x="319" y="-95"/>
      <point x="346" y="-88"/>
      <point x="364" y="-74" type="curve" smooth="yes"/>
      <point x="382" y="-60"/>
      <point x="391" y="-39"/>
      <point x="391" y="-12" type="curve" smooth="yes"/>
      <point x="391" y="19"/>
      <point x="379" y="42"/>
      <point x="356" y="57" type="curve" smooth="yes"/>
      <point x="333" y="71"/>
      <point x="294" y="84"/>
      <point x="239" y="95" type="curve" smooth="yes"/>
      <point x="129" y="120"/>
      <point x="74" y="182"/>
      <point x="74" y="279" type="curve" smooth="yes"/>
      <point x="74" y="319"/>
      <point x="84" y="353"/>
      <point x="103" y="382" type="curve" smooth="yes"/>
      <point x="122" y="410"/>
      <point x="150" y="430"/>
      <point x="187" y="443" type="curve"/>
      <point x="156" y="456"/>
      <point x="133" y="473"/>
      <point x="120" y="495" type="curve" smooth="yes"/>
      <point x="106" y="517"/>
      <point x="99" y="543"/>
      <point x="99" y="574" type="curve" smooth="yes"/>
      <point x="99" y="622"/>
      <point x="116" y="660"/>
      <point x="151" y="689" type="curve" smooth="yes"/>
      <point x="185" y="717"/>
      <point x="231" y="731"/>
      <point x="290" y="731" type="curve" smooth="yes"/>
      <point x="351" y="731"/>
      <point x="397" y="717"/>
      <point x="429" y="688" type="curve" smooth="yes"/>
      <point x="461" y="659"/>
      <point x="477" y="618"/>
      <point x="477" y="566" type="curve"/>
      <point x="393" y="566" type="line"/>
      <point x="393" y="625"/>
      <point x="358" y="654"/>
      <point x="289" y="654" type="curve" smooth="yes"/>
      <point x="256" y="654"/>
      <point x="231" y="647"/>
      <point x="214" y="634" type="curve" smooth="yes"/>
      <point x="196" y="620"/>
      <point x="187" y="600"/>
      <point x="187" y="574" type="curve" smooth="yes"/>
      <point x="187" y="553"/>
      <point x="193" y="536"/>
      <point x="204" y="523" type="curve" smooth="yes"/>
      <point x="215" y="510"/>
      <point x="230" y="500"/>
      <point x="251" y="492" type="curve" smooth="yes"/>
      <point x="272" y="484"/>
      <point x="300" y="476"/>
      <point x="336" y="469" type="curve" smooth="yes"/>
      <point x="383" y="458"/>
      <point x="422" y="439"/>
      <point x="453" y="412" type="curve" smooth="yes"/>
      <point x="484" y="384"/>
      <point x="499" y="342"/>
      <point x="499" y="286" type="curve" smooth="yes"/>
      <point x="499" y="245"/>
      <point x="489" y="210"/>
      <point x="470" y="182" type="curve" smooth="yes"/>
      <point x="451" y="153"/>
      <point x="423" y="133"/>
      <point x="388" y="122" type="curve"/>
      <point x="419" y="109"/>
      <point x="442" y="92"/>
      <point x="457" y="70" type="curve" smooth="yes"/>
      <point x="472" y="48"/>
      <point x="479" y="20"/>
      <point x="479" y="-13" type="curve" smooth="yes"/>
      <point x="479" y="-63"/>
      <point x="462" y="-102"/>
      <point x="427" y="-130" type="curve" smooth="yes"/>
      <point x="392" y="-158"/>
      <point x="344" y="-172"/>
      <point x="284" y="-172" type="curve" smooth="yes"/>
      <point x="221" y="-172"/>
      <point x="172" y="-157"/>
      <point x="139" y="-127" type="curve" smooth="yes"/>
      <point x="106" y="-98"/>
      <point x="89" y="-56"/>
    </contour>
    <contour>
      <point x="411" y="282" type="curve" smooth="yes"/>
      <point x="411" y="318"/>
      <point x="400" y="346"/>
      <point x="379" y="365" type="curve" smooth="yes"/>
      <point x="358" y="384"/>
      <point x="327" y="393"/>
      <point x="287" y="393" type="curve" smooth="yes"/>
      <point x="246" y="393"/>
      <point x="215" y="384"/>
      <point x="194" y="365" type="curve" smooth="yes"/>
      <point x="173" y="346"/>
      <point x="162" y="318"/>
      <point x="162" y="282" type="curve" smooth="yes"/>
      <point x="162" y="246"/>
      <point x="173" y="219"/>
      <point x="194" y="200" type="curve" smooth="yes"/>
      <point x="215" y="181"/>
      <point x="246" y="171"/>
      <point x="287" y="171" type="curve" smooth="yes"/>
      <point x="327" y="171"/>
      <point x="358" y="181"/>
      <point x="379" y="200" type="curve" smooth="yes"/>
      <point x="400" y="219"/>
      <point x="411" y="246"/>
    </contour>
  </outline>
</glyph>
<glyph name="ordfeminine" format="2">
  <advance width="391"/>
  <unicode hex="00AA"/>
  <outline>
    <contour>
      <point x="335" y="647" type="qcurve" smooth="yes"/>
      <point x="335" y="440" type="line"/>
      <point x="265" y="440" type="line"/>
      <point x="265" y="474" type="line"/>
      <point x="227" y="436"/>
      <point x="163" y="436" type="qcurve" smooth="yes"/>
      <point x="106" y="436"/>
      <point x="44" y="488"/>
      <point x="44" y="535" type="qcurve" smooth="yes"/>
      <point x="44" y="582"/>
      <point x="110" y="630"/>
      <point x="172" y="630" type="qcurve" smooth="yes"/>
      <point x="262" y="630" type="line"/>
      <point x="262" y="651" type="line" smooth="yes"/>
      <point x="262" y="681"/>
      <point x="226" y="710"/>
      <point x="189" y="710" type="qcurve" smooth="yes"/>
      <point x="156" y="710"/>
      <point x="122" y="688"/>
      <point x="122" y="669" type="qcurve" smooth="yes"/>
      <point x="122" y="667" type="line"/>
      <point x="54" y="667" type="line"/>
      <point x="54" y="669" type="line" smooth="yes"/>
      <point x="54" y="715"/>
      <point x="126" y="766"/>
      <point x="193" y="766" type="qcurve" smooth="yes"/>
      <point x="335" y="766"/>
    </contour>
    <contour>
      <point x="262" y="529"/>
      <point x="262" y="565" type="qcurve" smooth="yes"/>
      <point x="262" y="580" type="line"/>
      <point x="182" y="580" type="line" smooth="yes"/>
      <point x="147" y="580"/>
      <point x="115" y="559"/>
      <point x="115" y="538" type="qcurve" smooth="yes"/>
      <point x="115" y="496"/>
      <point x="179" y="496" type="qcurve" smooth="yes"/>
      <point x="222" y="496"/>
    </contour>
  </outline>
</glyph>
<glyph name="guillemotleft" format="2">
  <advance width="565"/>
  <unicode hex="00AB"/>
  <outline>
    <contour>
      <point x="24" y="270" type="line"/>
      <point x="262" y="480" type="line"/>
      <point x="262" y="387" type="line"/>
      <point x="127" y="270" type="line"/>
      <point x="262" y="154" type="line"/>
      <point x="262" y="60" type="line"/>
    </contour>
    <contour>
      <point x="258" y="270" type="line"/>
      <point x="497" y="480" type="line"/>
      <point x="497" y="387" type="line"/>
      <point x="361" y="270" type="line"/>
      <point x="497" y="154" type="line"/>
      <point x="497" y="60" type="line"/>
    </contour>
  </outline>
</glyph>
<glyph name="registered" format="2">
  <advance width="531"/>
  <unicode hex="00AE"/>
  <outline>
    <contour>
      <point x="74" y="511" type="curve" smooth="yes"/>
      <point x="74" y="548"/>
      <point x="82" y="581"/>
      <point x="99" y="611" type="curve" smooth="yes"/>
      <point x="115" y="640"/>
      <point x="138" y="664"/>
      <point x="167" y="681" type="curve" smooth="yes"/>
      <point x="196" y="698"/>
      <point x="229" y="707"/>
      <point x="265" y="707" type="curve" smooth="yes"/>
      <point x="302" y="707"/>
      <point x="335" y="698"/>
      <point x="364" y="681" type="curve" smooth="yes"/>
      <point x="393" y="664"/>
      <point x="416" y="640"/>
      <point x="433" y="611" type="curve" smooth="yes"/>
      <point x="450" y="581"/>
      <point x="458" y="548"/>
      <point x="458" y="511" type="curve" smooth="yes"/>
      <point x="458" y="474"/>
      <point x="450" y="440"/>
      <point x="434" y="411" type="curve" smooth="yes"/>
      <point x="417" y="381"/>
      <point x="394" y="357"/>
      <point x="365" y="340" type="curve" smooth="yes"/>
      <point x="336" y="323"/>
      <point x="302" y="314"/>
      <point x="265" y="314" type="curve" smooth="yes"/>
      <point x="228" y="314"/>
      <point x="196" y="323"/>
      <point x="167" y="340" type="curve" smooth="yes"/>
      <point x="138" y="357"/>
      <point x="115" y="381"/>
      <point x="99" y="411" type="curve" smooth="yes"/>
      <point x="82" y="440"/>
      <point x="74" y="474"/>
    </contour>
    <contour>
      <point x="421" y="511" type="curve" smooth="yes"/>
      <point x="421" y="558"/>
      <point x="406" y="597"/>
      <point x="377" y="627" type="curve" smooth="yes"/>
      <point x="348" y="657"/>
      <point x="310" y="672"/>
      <point x="265" y="672" type="curve" smooth="yes"/>
      <point x="219" y="672"/>
      <point x="182" y="657"/>
      <point x="154" y="627" type="curve" smooth="yes"/>
      <point x="126" y="597"/>
      <point x="112" y="558"/>
      <point x="112" y="511" type="curve" smooth="yes"/>
      <point x="112" y="463"/>
      <point x="126" y="424"/>
      <point x="155" y="394" type="curve" smooth="yes"/>
      <point x="183" y="364"/>
      <point x="220" y="349"/>
      <point x="265" y="349" type="curve" smooth="yes"/>
      <point x="311" y="349"/>
      <point x="349" y="364"/>
      <point x="378" y="394" type="curve" smooth="yes"/>
      <point x="407" y="424"/>
      <point x="421" y="463"/>
    </contour>
    <contour>
      <point x="193" y="622" type="line"/>
      <point x="276" y="622" type="line" smooth="yes"/>
      <point x="299" y="622"/>
      <point x="317" y="616"/>
      <point x="330" y="605" type="curve" smooth="yes"/>
      <point x="343" y="594"/>
      <point x="349" y="577"/>
      <point x="349" y="556" type="curve" smooth="yes"/>
      <point x="349" y="527"/>
      <point x="336" y="507"/>
      <point x="311" y="496" type="curve"/>
      <point x="354" y="402" type="line"/>
      <point x="310" y="402" type="line"/>
      <point x="269" y="490" type="line"/>
      <point x="234" y="490" type="line"/>
      <point x="234" y="402" type="line"/>
      <point x="193" y="402" type="line"/>
    </contour>
    <contour>
      <point x="274" y="526" type="line" smooth="yes"/>
      <point x="297" y="526"/>
      <point x="308" y="536"/>
      <point x="308" y="556" type="curve" smooth="yes"/>
      <point x="308" y="575"/>
      <point x="297" y="585"/>
      <point x="274" y="585" type="curve" smooth="yes"/>
      <point x="234" y="585" type="line"/>
      <point x="234" y="526" type="line"/>
    </contour>
  </outline>
</glyph>
<glyph name="twosuperior" format="2">
  <advance width="384"/>
  <unicode hex="00B2"/>
  <outline>
    <contour>
      <point x="52" y="502" type="line"/>
      <point x="215" y="672" type="line" smooth="yes"/>
      <point x="228" y="685"/>
      <point x="238" y="698"/>
      <point x="245" y="709" type="curve" smooth="yes"/>
      <point x="251" y="720"/>
      <point x="254" y="732"/>
      <point x="254" y="745" type="curve" smooth="yes"/>
      <point x="254" y="752" type="line" smooth="yes"/>
      <point x="254" y="771"/>
      <point x="249" y="785"/>
      <point x="238" y="795" type="curve" smooth="yes"/>
      <point x="227" y="804"/>
      <point x="211" y="809"/>
      <point x="190" y="809" type="curve" smooth="yes"/>
      <point x="169" y="809"/>
      <point x="153" y="804"/>
      <point x="142" y="794" type="curve" smooth="yes"/>
      <point x="131" y="784"/>
      <point x="125" y="770"/>
      <point x="125" y="751" type="curve" smooth="yes"/>
      <point x="125" y="743" type="line"/>
      <point x="48" y="743" type="line"/>
      <point x="48" y="753" type="line" smooth="yes"/>
      <point x="48" y="791"/>
      <point x="61" y="821"/>
      <point x="87" y="842" type="curve" smooth="yes"/>
      <point x="112" y="863"/>
      <point x="148" y="874"/>
      <point x="193" y="874" type="curve" smooth="yes"/>
      <point x="238" y="874"/>
      <point x="272" y="863"/>
      <point x="297" y="842" type="curve" smooth="yes"/>
      <point x="322" y="821"/>
      <point x="334" y="792"/>
      <point x="334" y="755" type="curve" smooth="yes"/>
      <point x="334" y="746" type="line" smooth="yes"/>
      <point x="334" y="723"/>
      <point x="329" y="703"/>
      <point x="320" y="685" type="curve" smooth="yes"/>
      <point x="310" y="666"/>
      <point x="294" y="647"/>
      <point x="272" y="626" type="curve" smooth="yes"/>
      <point x="163" y="509" type="line"/>
      <point x="336" y="509" type="line"/>
      <point x="336" y="440" type="line"/>
      <point x="52" y="440" type="line"/>
    </contour>
  </outline>
</glyph>
<glyph name="threesuperior" format="2">
  <advance width="381"/>
  <unicode hex="00B3"/>
  <outline>
    <contour>
      <point x="47" y="550" type="curve" smooth="yes"/>
      <point x="47" y="558" type="line"/>
      <point x="118" y="558" type="line"/>
      <point x="118" y="552" type="line" smooth="yes"/>
      <point x="118" y="517"/>
      <point x="141" y="499"/>
      <point x="187" y="499" type="curve" smooth="yes"/>
      <point x="234" y="499"/>
      <point x="257" y="518"/>
      <point x="257" y="557" type="curve" smooth="yes"/>
      <point x="257" y="565" type="line" smooth="yes"/>
      <point x="257" y="586"/>
      <point x="251" y="602"/>
      <point x="239" y="613" type="curve" smooth="yes"/>
      <point x="226" y="623"/>
      <point x="207" y="628"/>
      <point x="181" y="628" type="curve" smooth="yes"/>
      <point x="157" y="628" type="line"/>
      <point x="157" y="694" type="line"/>
      <point x="181" y="694" type="line" smooth="yes"/>
      <point x="227" y="694"/>
      <point x="250" y="712"/>
      <point x="250" y="749" type="curve" smooth="yes"/>
      <point x="250" y="756" type="line" smooth="yes"/>
      <point x="250" y="791"/>
      <point x="228" y="809"/>
      <point x="185" y="809" type="curve" smooth="yes"/>
      <point x="164" y="809"/>
      <point x="148" y="805"/>
      <point x="137" y="796" type="curve" smooth="yes"/>
      <point x="126" y="787"/>
      <point x="120" y="774"/>
      <point x="120" y="758" type="curve" smooth="yes"/>
      <point x="120" y="751" type="line"/>
      <point x="49" y="751" type="line"/>
      <point x="49" y="758" type="line" smooth="yes"/>
      <point x="49" y="795"/>
      <point x="61" y="823"/>
      <point x="86" y="844" type="curve" smooth="yes"/>
      <point x="111" y="864"/>
      <point x="145" y="874"/>
      <point x="188" y="874" type="curve" smooth="yes"/>
      <point x="232" y="874"/>
      <point x="266" y="864"/>
      <point x="291" y="845" type="curve" smooth="yes"/>
      <point x="315" y="825"/>
      <point x="327" y="798"/>
      <point x="327" y="764" type="curve" smooth="yes"/>
      <point x="327" y="756" type="line" smooth="yes"/>
      <point x="327" y="714"/>
      <point x="307" y="684"/>
      <point x="267" y="667" type="curve"/>
      <point x="312" y="650"/>
      <point x="334" y="617"/>
      <point x="334" y="566" type="curve" smooth="yes"/>
      <point x="334" y="557" type="line" smooth="yes"/>
      <point x="334" y="519"/>
      <point x="321" y="489"/>
      <point x="295" y="467" type="curve" smooth="yes"/>
      <point x="269" y="445"/>
      <point x="233" y="434"/>
      <point x="188" y="434" type="curve" smooth="yes"/>
      <point x="143" y="434"/>
      <point x="109" y="444"/>
      <point x="84" y="465" type="curve" smooth="yes"/>
      <point x="59" y="485"/>
      <point x="47" y="513"/>
    </contour>
  </outline>
</glyph>
<glyph name="paragraph" format="2">
  <advance width="697"/>
  <unicode hex="00B6"/>
  <outline>
    <contour>
      <point x="333" y="275" type="line"/>
      <point x="331" y="275" type="line" smooth="yes"/>
      <point x="248" y="275"/>
      <point x="185" y="294"/>
      <point x="141" y="332" type="curve" smooth="yes"/>
      <point x="96" y="369"/>
      <point x="74" y="422"/>
      <point x="74" y="490" type="curve" smooth="yes"/>
      <point x="74" y="559"/>
      <point x="95" y="612"/>
      <point x="138" y="650" type="curve" smooth="yes"/>
      <point x="181" y="688"/>
      <point x="240" y="707"/>
      <point x="316" y="707" type="curve" smooth="yes"/>
      <point x="587" y="707" type="line"/>
      <point x="587" y="-157" type="line"/>
      <point x="505" y="-157" type="line"/>
      <point x="505" y="629" type="line"/>
      <point x="415" y="629" type="line"/>
      <point x="415" y="-157" type="line"/>
      <point x="333" y="-157" type="line"/>
    </contour>
  </outline>
</glyph>
<glyph name="ordmasculine" format="2">
  <advance width="391"/>
  <unicode hex="00BA"/>
  <outline>
    <contour>
      <point x="47" y="584" type="curve" smooth="yes"/>
      <point x="47" y="620" type="line" smooth="yes"/>
      <point x="47" y="667"/>
      <point x="60" y="704"/>
      <point x="87" y="729" type="curve" smooth="yes"/>
      <point x="113" y="754"/>
      <point x="149" y="766"/>
      <point x="196" y="766" type="curve" smooth="yes"/>
      <point x="243" y="766"/>
      <point x="279" y="753"/>
      <point x="306" y="728" type="curve" smooth="yes"/>
      <point x="332" y="703"/>
      <point x="345" y="667"/>
      <point x="345" y="620" type="curve" smooth="yes"/>
      <point x="345" y="584" type="line" smooth="yes"/>
      <point x="345" y="536"/>
      <point x="332" y="499"/>
      <point x="306" y="474" type="curve" smooth="yes"/>
      <point x="279" y="449"/>
      <point x="243" y="436"/>
      <point x="196" y="436" type="curve" smooth="yes"/>
      <point x="149" y="436"/>
      <point x="112" y="449"/>
      <point x="86" y="474" type="curve" smooth="yes"/>
      <point x="60" y="499"/>
      <point x="47" y="536"/>
    </contour>
    <contour>
      <point x="271" y="584" type="curve" smooth="yes"/>
      <point x="271" y="620" type="line" smooth="yes"/>
      <point x="271" y="647"/>
      <point x="265" y="667"/>
      <point x="252" y="680" type="curve" smooth="yes"/>
      <point x="239" y="693"/>
      <point x="220" y="700"/>
      <point x="196" y="700" type="curve" smooth="yes"/>
      <point x="171" y="700"/>
      <point x="153" y="693"/>
      <point x="140" y="680" type="curve" smooth="yes"/>
      <point x="127" y="666"/>
      <point x="120" y="646"/>
      <point x="120" y="620" type="curve" smooth="yes"/>
      <point x="120" y="584" type="line" smooth="yes"/>
      <point x="120" y="557"/>
      <point x="127" y="536"/>
      <point x="140" y="523" type="curve" smooth="yes"/>
      <point x="153" y="509"/>
      <point x="171" y="502"/>
      <point x="196" y="502" type="curve" smooth="yes"/>
      <point x="220" y="502"/>
      <point x="239" y="509"/>
      <point x="252" y="523" type="curve" smooth="yes"/>
      <point x="265" y="536"/>
      <point x="271" y="557"/>
    </contour>
  </outline>
</glyph>
<glyph name="questiondown" format="2">
  <advance width="496"/>
  <unicode hex="00BF"/>
  <outline>
    <contour>
      <point x="43" y="6" type="curve" smooth="yes"/>
      <point x="43" y="35"/>
      <point x="48" y="61"/>
      <point x="58" y="85" type="curve" smooth="yes"/>
      <point x="68" y="108"/>
      <point x="84" y="131"/>
      <point x="106" y="154" type="curve" smooth="yes"/>
      <point x="173" y="217" type="line" smooth="yes"/>
      <point x="188" y="232"/>
      <point x="199" y="245"/>
      <point x="204" y="258" type="curve" smooth="yes"/>
      <point x="209" y="270"/>
      <point x="211" y="287"/>
      <point x="211" y="308" type="curve" smooth="yes"/>
      <point x="211" y="338" type="line"/>
      <point x="301" y="338" type="line"/>
      <point x="301" y="304" type="line" smooth="yes"/>
      <point x="301" y="273"/>
      <point x="297" y="248"/>
      <point x="290" y="229" type="curve" smooth="yes"/>
      <point x="283" y="210"/>
      <point x="268" y="190"/>
      <point x="245" y="169" type="curve" smooth="yes"/>
      <point x="187" y="116" type="line" smooth="yes"/>
      <point x="168" y="97"/>
      <point x="154" y="80"/>
      <point x="147" y="65" type="curve" smooth="yes"/>
      <point x="139" y="49"/>
      <point x="135" y="31"/>
      <point x="135" y="10" type="curve" smooth="yes"/>
      <point x="135" y="-21"/>
      <point x="145" y="-44"/>
      <point x="166" y="-60" type="curve" smooth="yes"/>
      <point x="187" y="-77"/>
      <point x="216" y="-85"/>
      <point x="255" y="-85" type="curve" smooth="yes"/>
      <point x="334" y="-85"/>
      <point x="373" y="-49"/>
      <point x="373" y="24" type="curve"/>
      <point x="462" y="24" type="line"/>
      <point x="461" y="-37"/>
      <point x="442" y="-84"/>
      <point x="406" y="-117" type="curve" smooth="yes"/>
      <point x="370" y="-150"/>
      <point x="319" y="-167"/>
      <point x="253" y="-167" type="curve" smooth="yes"/>
      <point x="188" y="-167"/>
      <point x="136" y="-152"/>
      <point x="99" y="-121" type="curve" smooth="yes"/>
      <point x="62" y="-90"/>
      <point x="43" y="-48"/>
    </contour>
    <contour>
      <point x="204" y="524" type="line"/>
      <point x="307" y="524" type="line"/>
      <point x="307" y="418" type="line"/>
      <point x="204" y="418" type="line"/>
    </contour>
  </outline>
</glyph>
<glyph name="Aring" format="2">
  <advance width="681"/>
  <unicode hex="00C5"/>
  <outline>
    <contour>
      <point x="513" y="160" type="line"/>
      <point x="167" y="160" type="line"/>
      <point x="103" y="0" type="line"/>
      <point x="6" y="0" type="line"/>
      <point x="300" y="706" type="line"/>
      <point x="283" y="713"/>
      <point x="269" y="725"/>
      <point x="260" y="740" type="curve" smooth="yes"/>
      <point x="250" y="755"/>
      <point x="245" y="773"/>
      <point x="245" y="794" type="curve" smooth="yes"/>
      <point x="245" y="822"/>
      <point x="254" y="845"/>
      <point x="272" y="864" type="curve" smooth="yes"/>
      <point x="290" y="882"/>
      <point x="313" y="891"/>
      <point x="341" y="891" type="curve" smooth="yes"/>
      <point x="368" y="891"/>
      <point x="391" y="882"/>
      <point x="410" y="864" type="curve" smooth="yes"/>
      <point x="428" y="845"/>
      <point x="437" y="822"/>
      <point x="437" y="794" type="curve" smooth="yes"/>
      <point x="437" y="773"/>
      <point x="432" y="755"/>
      <point x="422" y="740" type="curve" smooth="yes"/>
      <point x="412" y="725"/>
      <point x="398" y="713"/>
      <point x="381" y="706" type="curve"/>
      <point x="676" y="0" type="line"/>
      <point x="578" y="0" type="line"/>
    </contour>
    <contour>
      <point x="481" y="239" type="line"/>
      <point x="340" y="592" type="line"/>
      <point x="199" y="239" type="line"/>
    </contour>
    <contour>
      <point x="290" y="794" type="curve" smooth="yes"/>
      <point x="290" y="779"/>
      <point x="295" y="766"/>
      <point x="304" y="756" type="curve" smooth="yes"/>
      <point x="313" y="745"/>
      <point x="326" y="740"/>
      <point x="341" y="740" type="curve" smooth="yes"/>
      <point x="356" y="740"/>
      <point x="369" y="745"/>
      <point x="378" y="756" type="curve" smooth="yes"/>
      <point x="387" y="766"/>
      <point x="392" y="779"/>
      <point x="392" y="794" type="curve" smooth="yes"/>
      <point x="392" y="810"/>
      <point x="387" y="823"/>
      <point x="378" y="833" type="curve" smooth="yes"/>
      <point x="369" y="842"/>
      <point x="356" y="847"/>
      <point x="341" y="847" type="curve" smooth="yes"/>
      <point x="326" y="847"/>
      <point x="313" y="842"/>
      <point x="304" y="832" type="curve" smooth="yes"/>
      <point x="295" y="822"/>
      <point x="290" y="809"/>
    </contour>
  </outline>
</glyph>
<glyph name="Ccedilla" format="2">
  <advance width="696"/>
  <unicode hex="00C7"/>
  <outline>
    <contour>
      <point x="543" y="486" type="line"/>
      <point x="543" y="490" type="line" smooth="yes"/>
      <point x="543" y="536"/>
      <point x="527" y="571"/>
      <point x="495" y="596" type="curve" smooth="yes"/>
      <point x="463" y="621"/>
      <point x="418" y="633"/>
      <point x="359" y="633" type="curve" smooth="yes"/>
      <point x="290" y="633"/>
      <point x="239" y="614"/>
      <point x="206" y="577" type="curve" smooth="yes"/>
      <point x="173" y="539"/>
      <point x="156" y="480"/>
      <point x="156" y="400" type="curve" smooth="yes"/>
      <point x="156" y="301" type="line" smooth="yes"/>
      <point x="156" y="224"/>
      <point x="173" y="167"/>
      <point x="207" y="130" type="curve" smooth="yes"/>
      <point x="240" y="93"/>
      <point x="291" y="75"/>
      <point x="360" y="75" type="curve" smooth="yes"/>
      <point x="419" y="75"/>
      <point x="464" y="87"/>
      <point x="496" y="112" type="curve" smooth="yes"/>
      <point x="527" y="136"/>
      <point x="543" y="171"/>
      <point x="543" y="218" type="curve" smooth="yes"/>
      <point x="543" y="222" type="line"/>
      <point x="635" y="222" type="line"/>
      <point x="635" y="217" type="line" smooth="yes"/>
      <point x="635" y="156"/>
      <point x="616" y="106"/>
      <point x="579" y="67" type="curve" smooth="yes"/>
      <point x="541" y="28"/>
      <point x="489" y="4"/>
      <point x="422" y="-5" type="curve"/>
      <point x="355" y="-156" type="line"/>
      <point x="267" y="-156" type="line"/>
      <point x="343" y="-9" type="line"/>
      <point x="254" y="-6"/>
      <point x="185" y="22"/>
      <point x="136" y="74" type="curve" smooth="yes"/>
      <point x="87" y="126"/>
      <point x="62" y="202"/>
      <point x="62" y="302" type="curve" smooth="yes"/>
      <point x="62" y="406" type="line" smooth="yes"/>
      <point x="62" y="509"/>
      <point x="88" y="587"/>
      <point x="140" y="639" type="curve" smooth="yes"/>
      <point x="192" y="691"/>
      <point x="265" y="717"/>
      <point x="360" y="717" type="curve" smooth="yes"/>
      <point x="445" y="717"/>
      <point x="513" y="697"/>
      <point x="562" y="658" type="curve" smooth="yes"/>
      <point x="611" y="618"/>
      <point x="636" y="563"/>
      <point x="636" y="492" type="curve" smooth="yes"/>
      <point x="636" y="486" type="line"/>
    </contour>
  </outline>
</glyph>
<glyph name="Oslash" format="2">
  <advance width="711"/>
  <unicode hex="00D8"/>
  <outline>
    <contour>
      <point x="651" y="406" type="curve" smooth="yes"/>
      <point x="651" y="302" type="line" smooth="yes"/>
      <point x="651" y="199"/>
      <point x="625" y="121"/>
      <point x="574" y="69" type="curve" smooth="yes"/>
      <point x="523" y="17"/>
      <point x="450" y="-9"/>
      <point x="355" y="-9" type="curve" smooth="yes"/>
      <point x="286" y="-9"/>
      <point x="229" y="5"/>
      <point x="182" y="34" type="curve"/>
      <point x="146" y="-20" type="line"/>
      <point x="73" y="-20" type="line"/>
      <point x="134" y="74" type="line"/>
      <point x="86" y="127"/>
      <point x="62" y="203"/>
      <point x="62" y="302" type="curve" smooth="yes"/>
      <point x="62" y="406" type="line" smooth="yes"/>
      <point x="62" y="509"/>
      <point x="88" y="587"/>
      <point x="140" y="639" type="curve" smooth="yes"/>
      <point x="191" y="691"/>
      <point x="264" y="717"/>
      <point x="358" y="717" type="curve" smooth="yes"/>
      <point x="427" y="717"/>
      <point x="485" y="703"/>
      <point x="531" y="674" type="curve"/>
      <point x="567" y="729" type="line"/>
      <point x="640" y="729" type="line"/>
      <point x="579" y="635" type="line"/>
      <point x="627" y="583"/>
      <point x="651" y="507"/>
    </contour>
    <contour>
      <point x="559" y="400" type="line" smooth="yes"/>
      <point x="559" y="465"/>
      <point x="548" y="517"/>
      <point x="525" y="554" type="curve"/>
      <point x="230" y="108" type="line"/>
      <point x="261" y="86"/>
      <point x="303" y="75"/>
      <point x="357" y="75" type="curve" smooth="yes"/>
      <point x="424" y="75"/>
      <point x="475" y="93"/>
      <point x="509" y="130" type="curve" smooth="yes"/>
      <point x="542" y="167"/>
      <point x="559" y="224"/>
      <point x="559" y="301" type="curve" smooth="yes"/>
    </contour>
    <contour>
      <point x="187" y="154" type="curve"/>
      <point x="482" y="600" type="line"/>
      <point x="451" y="622"/>
      <point x="410" y="633"/>
      <point x="357" y="633" type="curve" smooth="yes"/>
      <point x="289" y="633"/>
      <point x="239" y="614"/>
      <point x="206" y="577" type="curve" smooth="yes"/>
      <point x="173" y="539"/>
      <point x="156" y="480"/>
      <point x="156" y="400" type="curve" smooth="yes"/>
      <point x="156" y="301" type="line" smooth="yes"/>
      <point x="155" y="238"/>
      <point x="166" y="189"/>
    </contour>
  </outline>
</glyph>
<glyph name="oslash" format="2">
  <advance width="585"/>
  <unicode hex="00F8"/>
  <outline>
    <contour>
      <point x="532" y="289" type="curve" smooth="yes"/>
      <point x="532" y="237" type="line" smooth="yes"/>
      <point x="532" y="157"/>
      <point x="511" y="96"/>
      <point x="469" y="54" type="curve" smooth="yes"/>
      <point x="427" y="12"/>
      <point x="369" y="-9"/>
      <point x="294" y="-9" type="curve" smooth="yes"/>
      <point x="243" y="-9"/>
      <point x="199" y="1"/>
      <point x="162" y="20" type="curve"/>
      <point x="127" y="-31" type="line"/>
      <point x="61" y="-31" type="line"/>
      <point x="119" y="52" type="line"/>
      <point x="75" y="94"/>
      <point x="53" y="156"/>
      <point x="53" y="237" type="curve" smooth="yes"/>
      <point x="53" y="289" type="line" smooth="yes"/>
      <point x="53" y="369"/>
      <point x="74" y="430"/>
      <point x="117" y="472" type="curve" smooth="yes"/>
      <point x="160" y="514"/>
      <point x="219" y="535"/>
      <point x="294" y="535" type="curve" smooth="yes"/>
      <point x="346" y="535"/>
      <point x="390" y="525"/>
      <point x="426" y="504" type="curve"/>
      <point x="459" y="551" type="line"/>
      <point x="524" y="551" type="line"/>
      <point x="469" y="471" type="line"/>
      <point x="511" y="428"/>
      <point x="532" y="367"/>
    </contour>
    <contour>
      <point x="168" y="125" type="curve"/>
      <point x="380" y="436" type="line"/>
      <point x="356" y="449"/>
      <point x="327" y="456"/>
      <point x="293" y="457" type="curve" smooth="yes"/>
      <point x="191" y="457"/>
      <point x="140" y="400"/>
      <point x="140" y="287" type="curve" smooth="yes"/>
      <point x="140" y="239" type="line" smooth="yes"/>
      <point x="140" y="191"/>
      <point x="149" y="153"/>
    </contour>
    <contour>
      <point x="445" y="287" type="line" smooth="yes"/>
      <point x="445" y="333"/>
      <point x="437" y="370"/>
      <point x="420" y="397" type="curve"/>
      <point x="208" y="87" type="line"/>
      <point x="230" y="74"/>
      <point x="258" y="68"/>
      <point x="293" y="68" type="curve" smooth="yes"/>
      <point x="338" y="68"/>
      <point x="374" y="79"/>
      <point x="399" y="102" type="curve" smooth="yes"/>
      <point x="430" y="130"/>
      <point x="445" y="176"/>
      <point x="445" y="239" type="curve" smooth="yes"/>
    </contour>
  </outline>
</glyph>
<glyph name="Aogonek" format="2">
  <advance width="681"/>
  <unicode hex="0104"/>
  <outline>
    <component base="A" xOffset="0" yOffset="0"/>
    <contour>
      <point x="581" y="0" type="line"/>
      <point x="672" y="0" type="line"/>
      <point x="522" y="-58" type="line"/>
      <point x="556" y="-83"/>
      <point x="616" y="-94"/>
      <point x="672" y="-95" type="curve"/>
      <point x="672" y="-157" type="line"/>
      <point x="588" y="-156"/>
      <point x="520" y="-139"/>
      <point x="469" y="-106" type="curve" smooth="yes"/>
      <point x="443" y="-89"/>
      <point x="424" y="-67"/>
      <point x="412" y="-40" type="curve"/>
    </contour>
  </outline>
</glyph>
<glyph name="aogonek" format="2">
  <advance width="562"/>
  <unicode hex="0105"/>
  <outline>
    <component base="a"/>
    <contour>
      <point x="409" y="0" type="line"/>
      <point x="494" y="0" type="line"/>
      <point x="344" y="-80" type="line"/>
      <point x="378" y="-115"/>
      <point x="438" y="-130"/>
      <point x="494" y="-131" type="curve"/>
      <point x="494" y="-217" type="line"/>
      <point x="410" y="-216"/>
      <point x="342" y="-192"/>
      <point x="291" y="-147" type="curve" smooth="yes"/>
      <point x="265" y="-123"/>
      <point x="246" y="-93"/>
      <point x="234" y="-55" type="curve"/>
    </contour>
  </outline>
</glyph>
<glyph name="dcroat" format="2">
  <advance width="593"/>
  <unicode hex="0111"/>
  <outline>
    <contour>
      <point x="280" y="640" type="line"/>
      <point x="593" y="640" type="line"/>
      <point x="593" y="581" type="line"/>
      <point x="280" y="581" type="line"/>
    </contour>
    <component base="d"/>
  </outline>
</glyph>
<glyph name="eogonek" format="2">
  <advance width="570"/>
  <unicode hex="0119"/>
  <outline>
    <component base="e" xOffset="0" yOffset="0"/>
    <contour>
      <point x="424" y="20" type="line"/>
      <point x="274" y="-58" type="line"/>
      <point x="308" y="-83"/>
      <point x="368" y="-94"/>
      <point x="424" y="-95" type="curve"/>
      <point x="424" y="-157" type="line"/>
      <point x="340" y="-156"/>
      <point x="272" y="-139"/>
      <point x="221" y="-106" type="curve" smooth="yes"/>
      <point x="195" y="-89"/>
      <point x="176" y="-67"/>
      <point x="164" y="-40" type="curve"/>
    </contour>
  </outline>
</glyph>
<glyph name="IJ" format="2">
  <advance width="708"/>
  <unicode hex="0132"/>
  <outline>
    <contour>
      <point x="635" y="707" type="line"/>
      <point x="635" y="253" type="line" smooth="yes"/>
      <point x="635" y="171"/>
      <point x="610" y="107"/>
      <point x="561" y="62" type="curve" smooth="yes"/>
      <point x="511" y="17"/>
      <point x="442" y="-6"/>
      <point x="354" y="-6" type="curve" smooth="yes"/>
      <point x="266" y="-6"/>
      <point x="197" y="17"/>
      <point x="148" y="62" type="curve" smooth="yes"/>
      <point x="119" y="88"/>
      <point x="99" y="121"/>
      <point x="87" y="160" type="curve"/>
      <point x="186" y="160" type="line"/>
      <point x="213" y="104"/>
      <point x="269" y="76"/>
      <point x="354" y="76" type="curve" smooth="yes"/>
      <point x="479" y="76"/>
      <point x="541" y="137"/>
      <point x="542" y="259" type="curve" smooth="yes"/>
      <point x="542" y="707" type="line"/>
    </contour>
    <contour>
      <point x="167" y="707" type="line"/>
      <point x="167" y="318" type="line"/>
      <point x="74" y="318" type="line"/>
      <point x="74" y="707" type="line"/>
    </contour>
  </outline>
</glyph>
<glyph name="ij" format="2">
  <advance width="595"/>
  <unicode hex="0133"/>
  <outline>
    <contour>
      <point x="79" y="706" type="line"/>
      <point x="166" y="706" type="line"/>
      <point x="166" y="611" type="line"/>
      <point x="79" y="611" type="line"/>
    </contour>
    <contour>
      <point x="79" y="706" type="line"/>
      <point x="166" y="706" type="line"/>
      <point x="166" y="611" type="line"/>
      <point x="79" y="611" type="line"/>
    </contour>
    <contour>
      <point x="441" y="706" type="line"/>
      <point x="527" y="706" type="line"/>
      <point x="527" y="611" type="line"/>
      <point x="441" y="611" type="line"/>
    </contour>
    <contour>
      <point x="68" y="-16" type="line"/>
      <point x="72" y="-65"/>
      <point x="93" y="-101"/>
      <point x="131" y="-126" type="curve" smooth="yes"/>
      <point x="168" y="-151"/>
      <point x="221" y="-164"/>
      <point x="288" y="-164" type="curve" smooth="yes"/>
      <point x="365" y="-164"/>
      <point x="424" y="-146"/>
      <point x="465" y="-109" type="curve" smooth="yes"/>
      <point x="506" y="-73"/>
      <point x="527" y="-22"/>
      <point x="527" y="45" type="curve" smooth="yes"/>
      <point x="527" y="524" type="line"/>
      <point x="441" y="524" type="line"/>
      <point x="441" y="251" type="line" smooth="yes"/>
      <point x="441" y="200"/>
      <point x="428" y="161"/>
      <point x="402" y="134" type="curve" smooth="yes"/>
      <point x="375" y="107"/>
      <point x="338" y="93"/>
      <point x="289" y="93" type="curve" smooth="yes"/>
      <point x="266" y="93"/>
      <point x="230" y="107"/>
      <point x="205" y="135" type="curve" smooth="yes"/>
      <point x="179" y="162"/>
      <point x="166" y="203"/>
      <point x="166" y="258" type="curve" smooth="yes"/>
      <point x="166" y="524" type="line"/>
      <point x="79" y="524" type="line"/>
      <point x="79" y="253" type="line" smooth="yes"/>
      <point x="79" y="177"/>
      <point x="99" y="118"/>
      <point x="138" y="77" type="curve" smooth="yes"/>
      <point x="177" y="36"/>
      <point x="230" y="15"/>
      <point x="296" y="15" type="curve" smooth="yes"/>
      <point x="334" y="15"/>
      <point x="343" y="21"/>
      <point x="373" y="33" type="curve" smooth="yes"/>
      <point x="401" y="44"/>
      <point x="424" y="58"/>
      <point x="441" y="84" type="curve"/>
      <point x="441" y="39" type="line" smooth="yes"/>
      <point x="441" y="-5"/>
      <point x="429" y="-37"/>
      <point x="404" y="-58" type="curve" smooth="yes"/>
      <point x="379" y="-79"/>
      <point x="341" y="-90"/>
      <point x="289" y="-90" type="curve" smooth="yes"/>
      <point x="248" y="-90"/>
      <point x="216" y="-84"/>
      <point x="195" y="-72" type="curve" smooth="yes"/>
      <point x="173" y="-60"/>
      <point x="159" y="-41"/>
      <point x="153" y="-16" type="curve"/>
    </contour>
  </outline>
</glyph>
<glyph name="Lslash" format="2">
  <advance width="592"/>
  <unicode hex="0141"/>
  <outline>
    <component base="L"/>
    <contour>
      <point x="22" y="295" type="line"/>
      <point x="23" y="396" type="line"/>
      <point x="395" y="555" type="line"/>
      <point x="395" y="454" type="line"/>
    </contour>
  </outline>
</glyph>
<glyph name="lslash" format="2">
  <advance width="309"/>
  <unicode hex="0142"/>
  <outline>
    <component base="l" xOffset="0" yOffset="0"/>
    <contour>
      <point x="22" y="279" type="line"/>
      <point x="23" y="390" type="line"/>
      <point x="265" y="531" type="line"/>
      <point x="265" y="420" type="line"/>
    </contour>
  </outline>
</glyph>
<glyph name="Eng" format="2">
  <advance width="738"/>
  <unicode hex="014A"/>
  <outline>
    <contour>
      <point x="74" y="707" type="line"/>
      <point x="167" y="707" type="line"/>
      <point x="571" y="159" type="line"/>
      <point x="571" y="707" type="line"/>
      <point x="665" y="707" type="line"/>
      <point x="665" y="134" type="line"/>
      <point x="666" y="134" type="line"/>
      <point x="666" y="-15" type="line" smooth="yes"/>
      <point x="666" y="-69"/>
      <point x="653" y="-109"/>
      <point x="627" y="-134" type="curve" smooth="yes"/>
      <point x="601" y="-160"/>
      <point x="561" y="-173"/>
      <point x="506" y="-173" type="curve" smooth="yes"/>
      <point x="449" y="-173" type="line"/>
      <point x="449" y="-95" type="line"/>
      <point x="494" y="-95" type="line" smooth="yes"/>
      <point x="525" y="-95"/>
      <point x="547" y="-88"/>
      <point x="560" y="-75" type="curve" smooth="yes"/>
      <point x="573" y="-62"/>
      <point x="572" y="-41"/>
      <point x="572" y="-10" type="curve" smooth="yes"/>
      <point x="572" y="0" type="line"/>
      <point x="571" y="0" type="line"/>
      <point x="167" y="547" type="line"/>
      <point x="167" y="0" type="line"/>
      <point x="74" y="0" type="line"/>
    </contour>
  </outline>
</glyph>
<glyph name="eng" format="2">
  <advance width="585"/>
  <unicode hex="014B"/>
  <outline>
    <contour>
      <point x="69" y="524" type="line"/>
      <point x="155" y="524" type="line"/>
      <point x="155" y="454" type="line"/>
      <point x="174" y="479"/>
      <point x="197" y="498"/>
      <point x="226" y="511" type="curve" smooth="yes"/>
      <point x="254" y="524"/>
      <point x="286" y="530"/>
      <point x="322" y="530" type="curve" smooth="yes"/>
      <point x="384" y="530"/>
      <point x="432" y="512"/>
      <point x="466" y="477" type="curve" smooth="yes"/>
      <point x="500" y="442"/>
      <point x="517" y="393"/>
      <point x="517" y="330" type="curve" smooth="yes"/>
      <point x="517" y="-15" type="line" smooth="yes"/>
      <point x="517" y="-69"/>
      <point x="504" y="-109"/>
      <point x="478" y="-134" type="curve" smooth="yes"/>
      <point x="452" y="-160"/>
      <point x="412" y="-173"/>
      <point x="357" y="-173" type="curve" smooth="yes"/>
      <point x="300" y="-173" type="line"/>
      <point x="300" y="-95" type="line"/>
      <point x="345" y="-95" type="line" smooth="yes"/>
      <point x="376" y="-95"/>
      <point x="398" y="-88"/>
      <point x="411" y="-75" type="curve" smooth="yes"/>
      <point x="424" y="-62"/>
      <point x="430" y="-41"/>
      <point x="430" y="-10" type="curve" smooth="yes"/>
      <point x="430" y="318" type="line" smooth="yes"/>
      <point x="430" y="363"/>
      <point x="419" y="396"/>
      <point x="397" y="419" type="curve" smooth="yes"/>
      <point x="375" y="442"/>
      <point x="343" y="453"/>
      <point x="300" y="453" type="curve" smooth="yes"/>
      <point x="256" y="453"/>
      <point x="221" y="440"/>
      <point x="195" y="414" type="curve" smooth="yes"/>
      <point x="169" y="388"/>
      <point x="156" y="352"/>
      <point x="156" y="307" type="curve" smooth="yes"/>
      <point x="156" y="0" type="line"/>
      <point x="69" y="0" type="line"/>
    </contour>
  </outline>
</glyph>
<glyph name="OE" format="2">
  <advance width="1085"/>
  <unicode hex="0152"/>
  <outline>
    <contour>
      <point x="651" y="624" type="line"/>
      <point x="651" y="400" type="line"/>
      <point x="984" y="400" type="line"/>
      <point x="984" y="317" type="line"/>
      <point x="651" y="317" type="line"/>
      <point x="651" y="83" type="line"/>
      <point x="1040" y="83" type="line"/>
      <point x="1040" y="0" type="line"/>
      <point x="561" y="0" type="line"/>
      <point x="561" y="61" type="line"/>
      <point x="510" y="14"/>
      <point x="440" y="-10"/>
      <point x="353" y="-9" type="curve" smooth="yes"/>
      <point x="260" y="-9"/>
      <point x="188" y="17"/>
      <point x="138" y="69" type="curve" smooth="yes"/>
      <point x="87" y="121"/>
      <point x="62" y="199"/>
      <point x="62" y="302" type="curve" smooth="yes"/>
      <point x="62" y="406" type="line" smooth="yes"/>
      <point x="62" y="509"/>
      <point x="88" y="587"/>
      <point x="139" y="639" type="curve" smooth="yes"/>
      <point x="190" y="691"/>
      <point x="262" y="717"/>
      <point x="355" y="717" type="curve" smooth="yes"/>
      <point x="442" y="717"/>
      <point x="510" y="694"/>
      <point x="561" y="647" type="curve"/>
      <point x="561" y="707" type="line"/>
      <point x="1040" y="707" type="line"/>
      <point x="1040" y="624" type="line"/>
    </contour>
    <contour>
      <point x="559" y="400" type="line" smooth="yes"/>
      <point x="559" y="480"/>
      <point x="542" y="539"/>
      <point x="509" y="577" type="curve" smooth="yes"/>
      <point x="476" y="614"/>
      <point x="425" y="633"/>
      <point x="357" y="633" type="curve" smooth="yes"/>
      <point x="289" y="633"/>
      <point x="239" y="614"/>
      <point x="206" y="577" type="curve" smooth="yes"/>
      <point x="173" y="539"/>
      <point x="156" y="480"/>
      <point x="156" y="400" type="curve" smooth="yes"/>
      <point x="156" y="301" type="line" smooth="yes"/>
      <point x="156" y="224"/>
      <point x="173" y="167"/>
      <point x="206" y="130" type="curve" smooth="yes"/>
      <point x="239" y="93"/>
      <point x="289" y="75"/>
      <point x="357" y="75" type="curve" smooth="yes"/>
      <point x="424" y="75"/>
      <point x="475" y="93"/>
      <point x="509" y="130" type="curve" smooth="yes"/>
      <point x="542" y="167"/>
      <point x="559" y="224"/>
      <point x="559" y="301" type="curve" smooth="yes"/>
    </contour>
  </outline>
</glyph>
<glyph name="oe" format="2">
  <advance width="961"/>
  <unicode hex="0153"/>
  <outline>
    <contour>
      <point x="532" y="241" type="line"/>
      <point x="532" y="237" type="line" smooth="yes"/>
      <point x="532" y="124"/>
      <point x="585" y="67"/>
      <point x="691" y="67" type="curve" smooth="yes"/>
      <point x="730" y="67"/>
      <point x="761" y="76"/>
      <point x="784" y="95" type="curve" smooth="yes"/>
      <point x="806" y="114"/>
      <point x="818" y="137"/>
      <point x="819" y="166" type="curve" smooth="yes"/>
      <point x="819" y="169" type="line"/>
      <point x="905" y="169" type="line"/>
      <point x="905" y="165" type="line" smooth="yes"/>
      <point x="904" y="132"/>
      <point x="895" y="103"/>
      <point x="878" y="77" type="curve" smooth="yes"/>
      <point x="861" y="50"/>
      <point x="836" y="29"/>
      <point x="804" y="14" type="curve" smooth="yes"/>
      <point x="771" y="-1"/>
      <point x="733" y="-9"/>
      <point x="689" y="-9" type="curve" smooth="yes"/>
      <point x="598" y="-9"/>
      <point x="532" y="20"/>
      <point x="489" y="79" type="curve"/>
      <point x="468" y="50"/>
      <point x="442" y="28"/>
      <point x="409" y="13" type="curve" smooth="yes"/>
      <point x="376" y="-2"/>
      <point x="337" y="-9"/>
      <point x="294" y="-9" type="curve" smooth="yes"/>
      <point x="219" y="-9"/>
      <point x="160" y="12"/>
      <point x="117" y="54" type="curve" smooth="yes"/>
      <point x="74" y="96"/>
      <point x="53" y="157"/>
      <point x="53" y="237" type="curve" smooth="yes"/>
      <point x="53" y="289" type="line" smooth="yes"/>
      <point x="53" y="369"/>
      <point x="74" y="430"/>
      <point x="117" y="472" type="curve" smooth="yes"/>
      <point x="160" y="514"/>
      <point x="219" y="535"/>
      <point x="294" y="535" type="curve" smooth="yes"/>
      <point x="337" y="535"/>
      <point x="376" y="528"/>
      <point x="409" y="513" type="curve" smooth="yes"/>
      <point x="442" y="498"/>
      <point x="468" y="476"/>
      <point x="488" y="447" type="curve"/>
      <point x="508" y="476"/>
      <point x="534" y="498"/>
      <point x="566" y="513" type="curve" smooth="yes"/>
      <point x="598" y="528"/>
      <point x="635" y="535"/>
      <point x="677" y="535" type="curve" smooth="yes"/>
      <point x="750" y="535"/>
      <point x="806" y="515"/>
      <point x="847" y="475" type="curve" smooth="yes"/>
      <point x="888" y="435"/>
      <point x="908" y="377"/>
      <point x="908" y="302" type="curve" smooth="yes"/>
      <point x="908" y="241" type="line"/>
    </contour>
    <contour>
      <point x="445" y="287" type="line" smooth="yes"/>
      <point x="445" y="400"/>
      <point x="394" y="457"/>
      <point x="293" y="457" type="curve" smooth="yes"/>
      <point x="191" y="457"/>
      <point x="140" y="400"/>
      <point x="140" y="287" type="curve" smooth="yes"/>
      <point x="140" y="239" type="line" smooth="yes"/>
      <point x="140" y="125"/>
      <point x="191" y="68"/>
      <point x="293" y="68" type="curve" smooth="yes"/>
      <point x="338" y="68"/>
      <point x="374" y="79"/>
      <point x="399" y="102" type="curve" smooth="yes"/>
      <point x="430" y="130"/>
      <point x="445" y="176"/>
      <point x="445" y="239" type="curve" smooth="yes"/>
    </contour>
    <contour>
      <point x="532" y="306" type="curve"/>
      <point x="821" y="306" type="line"/>
      <point x="821" y="315" type="line" smooth="yes"/>
      <point x="821" y="363"/>
      <point x="809" y="399"/>
      <point x="784" y="423" type="curve" smooth="yes"/>
      <point x="759" y="446"/>
      <point x="723" y="458"/>
      <point x="678" y="458" type="curve" smooth="yes"/>
      <point x="633" y="458"/>
      <point x="599" y="446"/>
      <point x="574" y="421" type="curve" smooth="yes"/>
      <point x="549" y="396"/>
      <point x="535" y="357"/>
    </contour>
  </outline>
</glyph>
<glyph name="Uogonek" format="2">
  <advance width="708"/>
  <unicode hex="0172"/>
  <outline>
    <component base="U"/>
    <contour>
      <point x="404" y="12" type="line"/>
      <point x="474" y="12" type="line"/>
      <point x="324" y="-58" type="line"/>
      <point x="358" y="-83"/>
      <point x="418" y="-94"/>
      <point x="474" y="-95" type="curve"/>
      <point x="474" y="-157" type="line"/>
      <point x="390" y="-156"/>
      <point x="322" y="-139"/>
      <point x="271" y="-106" type="curve" smooth="yes"/>
      <point x="245" y="-89"/>
      <point x="226" y="-67"/>
      <point x="214" y="-40" type="curve"/>
    </contour>
  </outline>
</glyph>
<glyph name="uogonek" format="2">
  <advance width="585"/>
  <unicode hex="0173"/>
  <outline>
    <contour>
      <point x="422" y="30" type="line"/>
      <point x="274" y="-80" type="line"/>
      <point x="308" y="-115"/>
      <point x="368" y="-130"/>
      <point x="424" y="-132" type="curve"/>
      <point x="424" y="-217" type="line"/>
      <point x="340" y="-216"/>
      <point x="272" y="-192"/>
      <point x="221" y="-147" type="curve" smooth="yes"/>
      <point x="195" y="-123"/>
      <point x="176" y="-93"/>
      <point x="164" y="-55" type="curve"/>
    </contour>
    <component base="u"/>
  </outline>
</glyph>
<glyph name="florin" format="2">
  <advance width="479"/>
  <unicode hex="0192"/>
  <outline>
    <contour>
      <point x="12" y="-74" type="line"/>
      <point x="58" y="-74" type="line" smooth="yes"/>
      <point x="89" y="-74"/>
      <point x="112" y="-68"/>
      <point x="126" y="-55" type="curve" smooth="yes"/>
      <point x="140" y="-42"/>
      <point x="150" y="-18"/>
      <point x="155" y="17" type="curve" smooth="yes"/>
      <point x="203" y="345" type="line"/>
      <point x="97" y="345" type="line"/>
      <point x="97" y="424" type="line"/>
      <point x="215" y="424" type="line"/>
      <point x="232" y="538" type="line" smooth="yes"/>
      <point x="241" y="599"/>
      <point x="260" y="643"/>
      <point x="287" y="669" type="curve" smooth="yes"/>
      <point x="314" y="694"/>
      <point x="356" y="707"/>
      <point x="412" y="707" type="curve" smooth="yes"/>
      <point x="468" y="707" type="line"/>
      <point x="468" y="625" type="line"/>
      <point x="416" y="625" type="line" smooth="yes"/>
      <point x="386" y="625"/>
      <point x="364" y="619"/>
      <point x="350" y="606" type="curve" smooth="yes"/>
      <point x="336" y="593"/>
      <point x="326" y="569"/>
      <point x="321" y="535" type="curve" smooth="yes"/>
      <point x="304" y="424" type="line"/>
      <point x="431" y="424" type="line"/>
      <point x="431" y="345" type="line"/>
      <point x="292" y="345" type="line"/>
      <point x="243" y="14" type="line" smooth="yes"/>
      <point x="234" y="-49"/>
      <point x="215" y="-93"/>
      <point x="188" y="-118" type="curve" smooth="yes"/>
      <point x="161" y="-144"/>
      <point x="119" y="-157"/>
      <point x="63" y="-157" type="curve" smooth="yes"/>
      <point x="12" y="-157" type="line"/>
    </contour>
  </outline>
</glyph>
<glyph name="Ocenteredtilde" format="2">
  <advance width="309"/>
  <unicode hex="019F"/>
  <outline>
    <component base="O"/>
    <contour>
      <point x="133" y="396" type="line"/>
      <point x="579" y="396" type="line"/>
      <point x="579" y="313" type="line"/>
      <point x="133" y="313" type="line"/>
    </contour>
  </outline>
</glyph>
<glyph name="oogonek" format="2">
  <advance width="585"/>
  <unicode hex="01EB"/>
  <outline>
    <component base="o"/>
    <contour>
      <point x="423" y="20" type="line"/>
      <point x="274" y="-58" type="line"/>
      <point x="308" y="-83"/>
      <point x="368" y="-94"/>
      <point x="424" y="-95" type="curve"/>
      <point x="424" y="-157" type="line"/>
      <point x="340" y="-156"/>
      <point x="272" y="-139"/>
      <point x="221" y="-106" type="curve" smooth="yes"/>
      <point x="195" y="-89"/>
      <point x="176" y="-67"/>
      <point x="164" y="-40" type="curve"/>
    </contour>
  </outline>
</glyph>
<glyph name="jcaron" format="2">
  <advance width="237"/>
  <unicode hex="01F0"/>
  <outline>
    <component base="caroncmb" xOffset="119" yOffset="0"/>
    <contour>
      <point x="-55" y="-79" type="line"/>
      <point x="-9" y="-79" type="line" smooth="yes"/>
      <point x="36" y="-79"/>
      <point x="75" y="-40"/>
      <point x="75" y="6" type="qcurve" smooth="yes"/>
      <point x="75" y="524" type="line"/>
      <point x="162" y="524" type="line"/>
      <point x="162" y="0" type="line" smooth="yes"/>
      <point x="162" y="-78"/>
      <point x="81" y="-157"/>
      <point x="1" y="-157" type="qcurve" smooth="yes"/>
      <point x="-55" y="-157" type="line"/>
    </contour>
  </outline>
</glyph>
<glyph name="tilde" format="2">
  <advance width="512"/>
  <unicode hex="02DC"/>
  <outline>
    <contour>
      <point x="105" y="662" type="line"/>
      <point x="118" y="675"/>
      <point x="132" y="684"/>
      <point x="145" y="690" type="curve" smooth="yes"/>
      <point x="158" y="696"/>
      <point x="173" y="699"/>
      <point x="189" y="699" type="curve" smooth="yes"/>
      <point x="202" y="699"/>
      <point x="215" y="697"/>
      <point x="226" y="694" type="curve" smooth="yes"/>
      <point x="237" y="691"/>
      <point x="249" y="686"/>
      <point x="262" y="679" type="curve" smooth="yes"/>
      <point x="275" y="673"/>
      <point x="286" y="668"/>
      <point x="295" y="665" type="curve" smooth="yes"/>
      <point x="304" y="662"/>
      <point x="315" y="660"/>
      <point x="327" y="660" type="curve" smooth="yes"/>
      <point x="343" y="660"/>
      <point x="357" y="663"/>
      <point x="368" y="670" type="curve" smooth="yes"/>
      <point x="379" y="676"/>
      <point x="391" y="686"/>
      <point x="406" y="699" type="curve"/>
      <point x="406" y="626" type="line"/>
      <point x="383" y="601"/>
      <point x="355" y="589"/>
      <point x="322" y="589" type="curve" smooth="yes"/>
      <point x="307" y="589"/>
      <point x="295" y="591"/>
      <point x="284" y="594" type="curve" smooth="yes"/>
      <point x="273" y="597"/>
      <point x="261" y="602"/>
      <point x="248" y="609" type="curve" smooth="yes"/>
      <point x="235" y="615"/>
      <point x="224" y="620"/>
      <point x="215" y="623" type="curve" smooth="yes"/>
      <point x="206" y="626"/>
      <point x="196" y="628"/>
      <point x="184" y="628" type="curve" smooth="yes"/>
      <point x="169" y="628"/>
      <point x="156" y="625"/>
      <point x="145" y="619" type="curve" smooth="yes"/>
      <point x="134" y="612"/>
      <point x="120" y="602"/>
      <point x="105" y="589" type="curve"/>
    </contour>
  </outline>
</glyph>
<glyph name="acutecomb" format="2">
  <unicode hex="0301"/>
  <anchor x="0" y="519" name="_top"/>
  <outline>
    <contour>
      <point x="34" y="717" type="line"/>
      <point x="143" y="717" type="line"/>
      <point x="1" y="586" type="line"/>
      <point x="-81" y="586" type="line"/>
    </contour>
  </outline>
</glyph>
<glyph name="circumflexcmb" format="2">
  <unicode hex="0302"/>
  <outline>
    <contour>
      <point x="-34" y="730" type="line"/>
      <point x="33" y="730" type="line"/>
      <point x="167" y="581" type="line"/>
      <point x="85" y="581" type="line"/>
      <point x="0" y="673" type="line"/>
      <point x="-86" y="581" type="line"/>
      <point x="-168" y="581" type="line"/>
    </contour>
  </outline>
</glyph>
<glyph name="dotaccentcmb" format="2">
  <unicode hex="0307"/>
  <outline>
    <contour>
      <point x="-44" y="701" type="line"/>
      <point x="44" y="701" type="line"/>
      <point x="44" y="606" type="line"/>
      <point x="-44" y="606" type="line"/>
    </contour>
  </outline>
</glyph>
<glyph name="dieresiscmb" format="2">
  <unicode hex="0308"/>
  <outline>
    <contour>
      <point x="-154" y="692" type="line"/>
      <point x="-67" y="692" type="line"/>
      <point x="-67" y="595" type="line"/>
      <point x="-154" y="595" type="line"/>
    </contour>
    <contour>
      <point x="67" y="692" type="line"/>
      <point x="153" y="692" type="line"/>
      <point x="153" y="595" type="line"/>
      <point x="67" y="595" type="line"/>
    </contour>
  </outline>
</glyph>
<glyph name="alpha" format="2">
  <advance width="770"/>
  <unicode hex="03B1"/>
  <outline>
    <contour>
      <point x="317" y="526" type="curve" smooth="yes"/>
      <point x="390" y="526"/>
      <point x="449" y="509"/>
      <point x="494" y="475" type="curve" smooth="yes"/>
      <point x="510" y="463"/>
      <point x="523" y="448"/>
      <point x="533" y="431" type="curve"/>
      <point x="541" y="441"/>
      <point x="550" y="450"/>
      <point x="560" y="458" type="curve" smooth="yes"/>
      <point x="601" y="489"/>
      <point x="655" y="504"/>
      <point x="723" y="505" type="curve"/>
      <point x="723" y="443" type="line"/>
      <point x="680" y="442"/>
      <point x="645" y="432"/>
      <point x="619" y="412" type="curve" smooth="yes"/>
      <point x="594" y="391"/>
      <point x="581" y="355"/>
      <point x="581" y="304" type="curve" smooth="yes"/>
      <point x="581" y="216" type="line" smooth="yes"/>
      <point x="581" y="165"/>
      <point x="594" y="129"/>
      <point x="619" y="108" type="curve" smooth="yes"/>
      <point x="645" y="87"/>
      <point x="680" y="77"/>
      <point x="723" y="76" type="curve"/>
      <point x="723" y="15" type="line"/>
      <point x="655" y="16"/>
      <point x="601" y="31"/>
      <point x="560" y="62" type="curve" smooth="yes"/>
      <point x="550" y="70"/>
      <point x="541" y="79"/>
      <point x="533" y="89" type="curve"/>
      <point x="523" y="72"/>
      <point x="510" y="57"/>
      <point x="494" y="45" type="curve" smooth="yes"/>
      <point x="449" y="11"/>
      <point x="390" y="-6"/>
      <point x="317" y="-6" type="curve" smooth="yes"/>
      <point x="241" y="-6"/>
      <point x="181" y="11"/>
      <point x="137" y="45" type="curve" smooth="yes"/>
      <point x="92" y="79"/>
      <point x="69" y="133"/>
      <point x="69" y="207" type="curve" smooth="yes"/>
      <point x="69" y="313" type="line" smooth="yes"/>
      <point x="69" y="387"/>
      <point x="92" y="441"/>
      <point x="137" y="475" type="curve" smooth="yes"/>
      <point x="181" y="509"/>
      <point x="241" y="526"/>
    </contour>
    <contour>
      <point x="317" y="463" type="curve" smooth="yes"/>
      <point x="267" y="463"/>
      <point x="227" y="452"/>
      <point x="199" y="429" type="curve" smooth="yes"/>
      <point x="170" y="406"/>
      <point x="155" y="366"/>
      <point x="155" y="309" type="curve" smooth="yes"/>
      <point x="155" y="211" type="line" smooth="yes"/>
      <point x="155" y="154"/>
      <point x="170" y="114"/>
      <point x="199" y="91" type="curve" smooth="yes"/>
      <point x="227" y="68"/>
      <point x="267" y="56"/>
      <point x="317" y="56" type="curve" smooth="yes"/>
      <point x="365" y="56"/>
      <point x="403" y="68"/>
      <point x="432" y="91" type="curve" smooth="yes"/>
      <point x="460" y="114"/>
      <point x="474" y="154"/>
      <point x="474" y="211" type="curve" smooth="yes"/>
      <point x="474" y="309" type="line" smooth="yes"/>
      <point x="474" y="366"/>
      <point x="460" y="406"/>
      <point x="432" y="429" type="curve" smooth="yes"/>
      <point x="403" y="452"/>
      <point x="365" y="463"/>
    </contour>
  </outline>
</glyph>
<glyph name="Eukrcyr" format="2">
  <advance width="696"/>
  <unicode hex="0404"/>
  <guideline x="357" y="0" angle="90" name="h1"/>
  <anchor x="357" y="760" name="top"/>
  <outline>
    <contour>
      <point x="543" y="222" type="line"/>
      <point x="543" y="218" type="line" smooth="yes"/>
      <point x="543" y="125"/>
      <point x="478" y="75"/>
      <point x="360" y="75" type="curve" smooth="yes"/>
      <point x="222" y="75"/>
      <point x="156" y="148"/>
      <point x="156" y="301" type="curve" smooth="yes"/>
      <point x="156" y="400" type="line" smooth="yes"/>
      <point x="156" y="559"/>
      <point x="221" y="633"/>
      <point x="359" y="633" type="curve" smooth="yes"/>
      <point x="477" y="633"/>
      <point x="543" y="582"/>
      <point x="543" y="490" type="curve" smooth="yes"/>
      <point x="543" y="486" type="line"/>
      <point x="636" y="486" type="line"/>
      <point x="636" y="492" type="line" smooth="yes"/>
      <point x="636" y="632"/>
      <point x="531" y="717"/>
      <point x="360" y="717" type="curve" smooth="yes"/>
      <point x="166" y="717"/>
      <point x="62" y="608"/>
      <point x="62" y="406" type="curve" smooth="yes"/>
      <point x="62" y="302" type="line" smooth="yes"/>
      <point x="62" y="100"/>
      <point x="166" y="-9"/>
      <point x="358" y="-9" type="curve" smooth="yes"/>
      <point x="529" y="-9"/>
      <point x="635" y="77"/>
      <point x="635" y="217" type="curve" smooth="yes"/>
      <point x="635" y="222" type="line"/>
    </contour>
    <contour>
      <point x="432" y="401" type="line"/>
      <point x="105" y="401" type="line"/>
      <point x="105" y="319" type="line"/>
      <point x="432" y="319" type="line"/>
    </contour>
  </outline>
</glyph>
<glyph name="Njecyr" format="2">
  <advance width="1123"/>
  <unicode hex="040A"/>
  <outline>
    <component base="H"/>
    <contour>
      <point x="587" y="0" type="line"/>
      <point x="820" y="0" type="line" smooth="yes"/>
      <point x="978" y="0"/>
      <point x="1063" y="74"/>
      <point x="1063" y="212" type="curve" smooth="yes"/>
      <point x="1063" y="349"/>
      <point x="978" y="423"/>
      <point x="820" y="423" type="curve" smooth="yes"/>
      <point x="587" y="423" type="line"/>
      <point x="587" y="340" type="line"/>
      <point x="822" y="340" type="line" smooth="yes"/>
      <point x="924" y="340"/>
      <point x="969" y="301"/>
      <point x="969" y="213" type="curve" smooth="yes"/>
      <point x="969" y="121"/>
      <point x="924" y="83"/>
      <point x="816" y="83" type="curve" smooth="yes"/>
      <point x="587" y="83" type="line"/>
    </contour>
  </outline>
</glyph>
<glyph name="Tshecyr" format="2">
  <advance width="833"/>
  <unicode hex="040B"/>
  <outline>
    <contour>
      <point x="236" y="0" type="line"/>
      <point x="328" y="0" type="line"/>
      <point x="328" y="624" type="line"/>
      <point x="556" y="624" type="line"/>
      <point x="556" y="707" type="line"/>
      <point x="7" y="707" type="line"/>
      <point x="7" y="624" type="line"/>
      <point x="236" y="624" type="line"/>
    </contour>
    <contour>
      <point x="773" y="0" type="line"/>
      <point x="773" y="212" type="line" smooth="yes"/>
      <point x="773" y="349"/>
      <point x="688" y="443"/>
      <point x="530" y="443" type="curve" smooth="yes"/>
      <point x="465" y="443"/>
      <point x="393" y="437"/>
      <point x="328" y="423" type="curve"/>
      <point x="297" y="423" type="line"/>
      <point x="297" y="340" type="line"/>
      <point x="328" y="340" type="line"/>
      <point x="394" y="354"/>
      <point x="466" y="360"/>
      <point x="532" y="360" type="curve" smooth="yes"/>
      <point x="634" y="360"/>
      <point x="679" y="301"/>
      <point x="679" y="213" type="curve" smooth="yes"/>
      <point x="679" y="0" type="line"/>
    </contour>
  </outline>
</glyph>
<glyph name="Becyr" format="2">
  <advance width="683"/>
  <unicode hex="0411"/>
  <outline>
    <contour>
      <point x="147" y="0" type="line"/>
      <point x="380" y="0" type="line" smooth="yes"/>
      <point x="538" y="0"/>
      <point x="623" y="74"/>
      <point x="623" y="212" type="curve" smooth="yes"/>
      <point x="623" y="349"/>
      <point x="538" y="423"/>
      <point x="380" y="423" type="curve" smooth="yes"/>
      <point x="147" y="423" type="line"/>
      <point x="147" y="340" type="line"/>
      <point x="382" y="340" type="line" smooth="yes"/>
      <point x="484" y="340"/>
      <point x="529" y="301"/>
      <point x="529" y="213" type="curve" smooth="yes"/>
      <point x="529" y="121"/>
      <point x="484" y="83"/>
      <point x="376" y="83" type="curve" smooth="yes"/>
      <point x="147" y="83" type="line"/>
    </contour>
    <contour>
      <point x="147" y="624" type="line"/>
      <point x="567" y="624" type="line"/>
      <point x="567" y="707" type="line"/>
      <point x="147" y="707" type="line"/>
    </contour>
    <contour>
      <point x="74" y="0" type="line"/>
      <point x="167" y="0" type="line"/>
      <point x="167" y="707" type="line"/>
      <point x="74" y="707" type="line"/>
    </contour>
  </outline>
</glyph>
<glyph name="Decyr" format="2">
  <advance width="643"/>
  <unicode hex="0414"/>
  <outline>
    <contour>
      <point x="194" y="707" type="line"/>
      <point x="577" y="707" type="line"/>
      <point x="577" y="83" type="line"/>
      <point x="633" y="83" type="line"/>
      <point x="633" y="-170" type="line"/>
      <point x="540" y="-170" type="line"/>
      <point x="540" y="0" type="line"/>
      <point x="103" y="0" type="line"/>
      <point x="103" y="-170" type="line"/>
      <point x="10" y="-170" type="line"/>
      <point x="10" y="83" type="line"/>
      <point x="49" y="83" type="line"/>
      <point x="113" y="150"/>
      <point x="150" y="273"/>
      <point x="164" y="411" type="curve" smooth="yes"/>
    </contour>
    <contour>
      <point x="257" y="375" type="line" smooth="yes"/>
      <point x="249" y="286"/>
      <point x="207" y="167"/>
      <point x="157" y="83" type="curve"/>
      <point x="484" y="83" type="line"/>
      <point x="484" y="625" type="line"/>
      <point x="280" y="625" type="line"/>
    </contour>
  </outline>
</glyph>
<glyph name="Zhecyr" format="2">
  <advance width="1139"/>
  <unicode hex="0416"/>
  <outline>
    <contour>
      <point x="596" y="319" type="line"/>
      <point x="823" y="319" type="line"/>
      <point x="823" y="401" type="line"/>
      <point x="596" y="401" type="line"/>
    </contour>
    <contour>
      <point x="523" y="0" type="line"/>
      <point x="616" y="0" type="line"/>
      <point x="616" y="707" type="line"/>
      <point x="523" y="707" type="line"/>
    </contour>
    <contour>
      <point x="1017" y="0" type="line"/>
      <point x="1129" y="0" type="line"/>
      <point x="823" y="401" type="line"/>
      <point x="756" y="334" type="line"/>
    </contour>
    <contour>
      <point x="728" y="326" type="line"/>
      <point x="812" y="326" type="line"/>
      <point x="1096" y="707" type="line"/>
      <point x="993" y="707" type="line"/>
      <point x="728" y="353" type="line"/>
    </contour>
    <contour>
      <point x="316" y="319" type="line"/>
      <point x="543" y="319" type="line"/>
      <point x="543" y="401" type="line"/>
      <point x="316" y="401" type="line"/>
    </contour>
    <contour>
      <point x="523" y="0" type="line"/>
      <point x="616" y="0" type="line"/>
      <point x="616" y="707" type="line"/>
      <point x="523" y="707" type="line"/>
    </contour>
    <contour>
      <point x="10" y="0" type="line"/>
      <point x="122" y="0" type="line"/>
      <point x="383" y="334" type="line"/>
      <point x="316" y="401" type="line"/>
    </contour>
    <contour>
      <point x="327" y="326" type="line"/>
      <point x="411" y="326" type="line"/>
      <point x="411" y="353" type="line"/>
      <point x="146" y="707" type="line"/>
      <point x="43" y="707" type="line"/>
    </contour>
  </outline>
</glyph>
<glyph name="Zecyr" format="2">
  <advance width="642"/>
  <unicode hex="0417"/>
  <outline>
    <contour>
      <point x="75" y="237" type="line"/>
      <point x="75" y="229" type="line" smooth="yes"/>
      <point x="75" y="102"/>
      <point x="174" y="0"/>
      <point x="335" y="0" type="curve" smooth="yes"/>
      <point x="489" y="0"/>
      <point x="582" y="69"/>
      <point x="582" y="197" type="curve" smooth="yes"/>
      <point x="582" y="212" type="line" smooth="yes"/>
      <point x="582" y="282"/>
      <point x="537" y="346"/>
      <point x="471" y="368" type="curve"/>
      <point x="531" y="389"/>
      <point x="569" y="443"/>
      <point x="569" y="508" type="curve" smooth="yes"/>
      <point x="569" y="520" type="line" smooth="yes"/>
      <point x="569" y="636"/>
      <point x="477" y="707"/>
      <point x="329" y="707" type="curve" smooth="yes"/>
      <point x="174" y="707"/>
      <point x="78" y="604"/>
      <point x="75" y="479" type="curve" smooth="yes"/>
      <point x="75" y="470" type="line"/>
      <point x="168" y="470" type="line"/>
      <point x="168" y="479" type="line" smooth="yes"/>
      <point x="172" y="560"/>
      <point x="228" y="625"/>
      <point x="331" y="625" type="curve" smooth="yes"/>
      <point x="417" y="625"/>
      <point x="477" y="579"/>
      <point x="477" y="513" type="curve" smooth="yes"/>
      <point x="477" y="498" type="line" smooth="yes"/>
      <point x="477" y="441"/>
      <point x="425" y="402"/>
      <point x="349" y="402" type="curve" smooth="yes"/>
      <point x="225" y="402" type="line"/>
      <point x="225" y="321" type="line"/>
      <point x="351" y="321" type="line" smooth="yes"/>
      <point x="443" y="321"/>
      <point x="489" y="273"/>
      <point x="489" y="212" type="curve" smooth="yes"/>
      <point x="489" y="203" type="line" smooth="yes"/>
      <point x="489" y="121"/>
      <point x="433" y="82"/>
      <point x="337" y="82" type="curve" smooth="yes"/>
      <point x="225" y="82"/>
      <point x="168" y="151"/>
      <point x="168" y="229" type="curve" smooth="yes"/>
      <point x="168" y="237" type="line"/>
    </contour>
  </outline>
</glyph>
<glyph name="Icyr" format="2">
  <advance width="672"/>
  <unicode hex="0418"/>
  <guideline x="324" y="0" angle="90" name="h1"/>
  <anchor x="324" y="760" name="top"/>
  <outline>
    <contour>
      <point x="74" y="0" type="line"/>
      <point x="177" y="0" type="line"/>
      <point x="457" y="474" type="line" smooth="yes"/>
      <point x="475" y="505"/>
      <point x="499" y="555"/>
      <point x="512" y="594" type="curve"/>
      <point x="515" y="594" type="line"/>
      <point x="508" y="555"/>
      <point x="504" y="486"/>
      <point x="504" y="447" type="curve" smooth="yes"/>
      <point x="504" y="0" type="line"/>
      <point x="597" y="0" type="line"/>
      <point x="597" y="707" type="line"/>
      <point x="494" y="707" type="line"/>
      <point x="216" y="236" type="line" smooth="yes"/>
      <point x="193" y="197"/>
      <point x="175" y="154"/>
      <point x="159" y="113" type="curve"/>
      <point x="156" y="113" type="line"/>
      <point x="165" y="156"/>
      <point x="167" y="222"/>
      <point x="167" y="260" type="curve" smooth="yes"/>
      <point x="167" y="707" type="line"/>
      <point x="74" y="707" type="line"/>
    </contour>
  </outline>
</glyph>
<glyph name="Elcyr" format="2">
  <advance width="622"/>
  <unicode hex="041B"/>
  <guideline x="228" y="375" angle="84.8367"/>
  <guideline x="165" y="707" angle="264.213"/>
  <outline>
    <contour>
      <point x="165" y="707" type="line"/>
      <point x="548" y="707" type="line"/>
      <point x="548" y="0" type="line"/>
      <point x="455" y="0" type="line"/>
      <point x="455" y="625" type="line"/>
      <point x="251" y="625" type="line"/>
      <point x="214" y="217" type="line" smooth="yes"/>
      <point x="199" y="49"/>
      <point x="144" y="0"/>
      <point x="20" y="0" type="curve"/>
      <point x="20" y="83" type="line"/>
      <point x="79" y="83"/>
      <point x="105" y="119"/>
      <point x="117" y="238" type="curve" smooth="yes"/>
    </contour>
  </outline>
</glyph>
<glyph name="Checyr" format="2">
  <advance width="710"/>
  <unicode hex="0427"/>
  <outline>
    <contour>
      <point x="74" y="707" type="line"/>
      <point x="74" y="483" type="line" smooth="yes"/>
      <point x="74" y="319"/>
      <point x="177" y="224"/>
      <point x="354" y="224" type="curve" smooth="yes"/>
      <point x="460" y="224"/>
      <point x="550" y="254"/>
      <point x="597" y="304" type="curve"/>
      <point x="597" y="358" type="line"/>
      <point x="542" y="358" type="line"/>
      <point x="515" y="329"/>
      <point x="432" y="306"/>
      <point x="354" y="306" type="curve" smooth="yes"/>
      <point x="229" y="306"/>
      <point x="167" y="367"/>
      <point x="167" y="489" type="curve" smooth="yes"/>
      <point x="167" y="707" type="line"/>
    </contour>
    <contour>
      <point x="542" y="0" type="line"/>
      <point x="636" y="0" type="line"/>
      <point x="636" y="707" type="line"/>
      <point x="542" y="707" type="line"/>
    </contour>
  </outline>
</glyph>
<glyph name="Hardcyr" format="2">
  <advance width="813"/>
  <unicode hex="042A"/>
  <outline>
    <contour>
      <point x="277" y="0" type="line"/>
      <point x="510" y="0" type="line" smooth="yes"/>
      <point x="668" y="0"/>
      <point x="753" y="74"/>
      <point x="753" y="212" type="curve" smooth="yes"/>
      <point x="753" y="349"/>
      <point x="668" y="423"/>
      <point x="510" y="423" type="curve" smooth="yes"/>
      <point x="277" y="423" type="line"/>
      <point x="277" y="340" type="line"/>
      <point x="512" y="340" type="line" smooth="yes"/>
      <point x="614" y="340"/>
      <point x="659" y="301"/>
      <point x="659" y="213" type="curve" smooth="yes"/>
      <point x="659" y="121"/>
      <point x="614" y="83"/>
      <point x="506" y="83" type="curve" smooth="yes"/>
      <point x="277" y="83" type="line"/>
    </contour>
    <contour>
      <point x="204" y="0" type="line"/>
      <point x="297" y="0" type="line"/>
      <point x="297" y="707" type="line"/>
      <point x="204" y="707" type="line"/>
    </contour>
    <contour>
      <point x="0" y="624" type="line"/>
      <point x="250" y="624" type="line"/>
      <point x="250" y="707" type="line"/>
      <point x="0" y="707" type="line"/>
    </contour>
  </outline>
</glyph>
<glyph name="Yacyr" format="2">
  <advance width="680"/>
  <unicode hex="042F"/>
  <guideline x="386" y="0" angle="90" name="h1"/>
  <anchor x="386" y="760" name="top"/>
  <outline>
    <contour>
      <point x="298" y="707" type="curve" smooth="yes"/>
      <point x="606" y="707" type="line"/>
      <point x="606" y="0" type="line"/>
      <point x="513" y="0" type="line"/>
      <point x="513" y="301" type="line"/>
      <point x="308" y="301" type="line"/>
      <point x="143" y="0" type="line"/>
      <point x="37" y="0" type="line"/>
      <point x="212" y="310" type="line"/>
      <point x="161" y="322"/>
      <point x="123" y="345"/>
      <point x="96" y="378" type="curve" smooth="yes"/>
      <point x="70" y="411"/>
      <point x="57" y="453"/>
      <point x="57" y="504" type="curve" smooth="yes"/>
      <point x="57" y="569"/>
      <point x="78" y="620"/>
      <point x="119" y="655" type="curve" smooth="yes"/>
      <point x="160" y="690"/>
      <point x="220" y="707"/>
    </contour>
    <contour>
      <point x="513" y="382" type="line"/>
      <point x="513" y="624" type="line"/>
      <point x="302" y="624" type="line" smooth="yes"/>
      <point x="251" y="624"/>
      <point x="213" y="614"/>
      <point x="188" y="595" type="curve" smooth="yes"/>
      <point x="163" y="575"/>
      <point x="151" y="545"/>
      <point x="151" y="504" type="curve" smooth="yes"/>
      <point x="151" y="462"/>
      <point x="163" y="431"/>
      <point x="186" y="412" type="curve" smooth="yes"/>
      <point x="209" y="392"/>
      <point x="246" y="382"/>
      <point x="296" y="382" type="curve" smooth="yes"/>
    </contour>
  </outline>
</glyph>
<glyph name="becyr" format="2">
  <advance width="585"/>
  <unicode hex="0431"/>
  <outline>
    <contour>
      <point x="294" y="-9" type="curve" smooth="yes"/>
      <point x="140" y="-9"/>
      <point x="53" y="75"/>
      <point x="53" y="232" type="curve" smooth="yes"/>
      <point x="53" y="412" type="line" smooth="yes"/>
      <point x="53" y="725"/>
      <point x="310" y="621"/>
      <point x="466" y="707" type="curve"/>
      <point x="466" y="620" type="line"/>
      <point x="342" y="553"/>
      <point x="140" y="626"/>
      <point x="140" y="403" type="curve" smooth="yes"/>
      <point x="143" y="403" type="line"/>
      <point x="169" y="455"/>
      <point x="238" y="486"/>
      <point x="316" y="486" type="curve" smooth="yes"/>
      <point x="446" y="486"/>
      <point x="532" y="402"/>
      <point x="532" y="245" type="curve" smooth="yes"/>
      <point x="532" y="232" type="line" smooth="yes"/>
      <point x="532" y="75"/>
      <point x="446" y="-9"/>
    </contour>
    <contour>
      <point x="293" y="68" type="curve" smooth="yes"/>
      <point x="394" y="68"/>
      <point x="445" y="120"/>
      <point x="445" y="234" type="curve" smooth="yes"/>
      <point x="445" y="243" type="line" smooth="yes"/>
      <point x="445" y="356"/>
      <point x="394" y="408"/>
      <point x="293" y="408" type="curve" smooth="yes"/>
      <point x="191" y="408"/>
      <point x="140" y="356"/>
      <point x="140" y="243" type="curve" smooth="yes"/>
      <point x="140" y="234" type="line" smooth="yes"/>
      <point x="140" y="120"/>
      <point x="191" y="68"/>
    </contour>
  </outline>
</glyph>
<glyph name="decyr" format="2">
  <advance width="573"/>
  <unicode hex="0434"/>
  <guideline x="90" y="524" angle="265.156"/>
  <guideline x="157" y="256" angle="85.7321"/>
  <outline>
    <contour>
      <point x="466" y="-170" type="line"/>
      <point x="553" y="-170" type="line"/>
      <point x="553" y="79" type="line"/>
      <point x="446" y="79" type="line"/>
      <point x="446" y="0" type="line"/>
      <point x="466" y="0" type="line"/>
    </contour>
    <contour>
      <point x="20" y="-170" type="line"/>
      <point x="107" y="-170" type="line"/>
      <point x="107" y="79" type="line"/>
      <point x="20" y="79" type="line"/>
    </contour>
    <contour>
      <point x="411" y="0" type="line"/>
      <point x="498" y="0" type="line"/>
      <point x="498" y="524" type="line"/>
      <point x="411" y="524" type="line"/>
    </contour>
    <contour>
      <point x="49" y="79" type="curve"/>
      <point x="65" y="0" type="line"/>
      <point x="150" y="0"/>
      <point x="183" y="72"/>
      <point x="188" y="140" type="curve" smooth="yes"/>
      <point x="217" y="524" type="line"/>
      <point x="130" y="524" type="line"/>
      <point x="99" y="161" type="line" smooth="yes"/>
      <point x="93" y="91"/>
      <point x="68" y="79"/>
    </contour>
    <contour>
      <point x="25" y="0" type="line"/>
      <point x="431" y="0" type="line"/>
      <point x="431" y="79" type="line"/>
      <point x="25" y="79" type="line"/>
    </contour>
    <contour>
      <point x="157" y="445" type="line"/>
      <point x="431" y="445" type="line"/>
      <point x="431" y="524" type="line"/>
      <point x="157" y="524" type="line"/>
    </contour>
  </outline>
</glyph>
<glyph name="zecyr" format="2">
  <advance width="591"/>
  <unicode hex="0437"/>
  <outline>
    <contour>
      <point x="53" y="164" type="line"/>
      <point x="53" y="147" type="line" smooth="yes"/>
      <point x="55" y="58"/>
      <point x="156" y="-9"/>
      <point x="292" y="-9" type="curve" smooth="yes"/>
      <point x="434" y="-9"/>
      <point x="523" y="57"/>
      <point x="523" y="161" type="curve" smooth="yes"/>
      <point x="523" y="171" type="line" smooth="yes"/>
      <point x="523" y="230"/>
      <point x="499" y="269"/>
      <point x="451" y="288" type="curve"/>
      <point x="451" y="291" type="line"/>
      <point x="488" y="303"/>
      <point x="513" y="341"/>
      <point x="513" y="384" type="curve" smooth="yes"/>
      <point x="513" y="391" type="line" smooth="yes"/>
      <point x="513" y="478"/>
      <point x="425" y="535"/>
      <point x="291" y="535" type="curve" smooth="yes"/>
      <point x="146" y="535"/>
      <point x="54" y="473"/>
      <point x="54" y="375" type="curve" smooth="yes"/>
      <point x="54" y="360" type="line"/>
      <point x="142" y="360" type="line"/>
      <point x="142" y="376" type="line" smooth="yes"/>
      <point x="142" y="422"/>
      <point x="205" y="457"/>
      <point x="289" y="457" type="curve" smooth="yes"/>
      <point x="370" y="457"/>
      <point x="426" y="431"/>
      <point x="426" y="393" type="curve" smooth="yes"/>
      <point x="426" y="382" type="line" smooth="yes"/>
      <point x="426" y="350"/>
      <point x="400" y="322"/>
      <point x="370" y="322" type="curve" smooth="yes"/>
      <point x="236" y="322" type="line"/>
      <point x="236" y="243" type="line"/>
      <point x="369" y="243" type="line" smooth="yes"/>
      <point x="406" y="243"/>
      <point x="436" y="209"/>
      <point x="436" y="168" type="curve" smooth="yes"/>
      <point x="436" y="156" type="line" smooth="yes"/>
      <point x="436" y="99"/>
      <point x="387" y="68"/>
      <point x="296" y="68" type="curve" smooth="yes"/>
      <point x="211" y="68"/>
      <point x="143" y="104"/>
      <point x="142" y="149" type="curve" smooth="yes"/>
      <point x="142" y="164" type="line"/>
    </contour>
  </outline>
</glyph>
<glyph name="icyr" format="2">
  <advance width="615"/>
  <unicode hex="0438"/>
  <guideline x="302" y="0" angle="90" name="h1"/>
  <anchor x="302" y="586" name="top"/>
  <outline>
    <contour>
      <point x="69" y="524" type="line"/>
      <point x="156" y="524" type="line"/>
      <point x="157" y="106" type="line"/>
      <point x="449" y="524" type="line"/>
      <point x="546" y="524" type="line"/>
      <point x="546" y="0" type="line"/>
      <point x="459" y="0" type="line"/>
      <point x="460" y="418" type="line"/>
      <point x="166" y="0" type="line"/>
      <point x="69" y="0" type="line"/>
    </contour>
  </outline>
</glyph>
<glyph name="elcyr" format="2">
  <advance width="529"/>
  <unicode hex="043B"/>
  <guideline x="92" y="524" angle="265.119"/>
  <guideline x="150" y="140" angle="85.6812"/>
  <outline>
    <contour>
      <point x="373" y="0" type="line"/>
      <point x="460" y="0" type="line"/>
      <point x="460" y="524" type="line"/>
      <point x="373" y="524" type="line"/>
    </contour>
    <contour>
      <point x="119" y="445" type="line"/>
      <point x="393" y="445" type="line"/>
      <point x="393" y="524" type="line"/>
      <point x="119" y="524" type="line"/>
    </contour>
    <contour>
      <point x="11" y="79" type="curve"/>
      <point x="11" y="0" type="line"/>
      <point x="96" y="0"/>
      <point x="143" y="47"/>
      <point x="150" y="140" type="curve" smooth="yes"/>
      <point x="179" y="524" type="line"/>
      <point x="92" y="524" type="line"/>
      <point x="61" y="161" type="line" smooth="yes"/>
      <point x="55" y="91"/>
      <point x="30" y="79"/>
    </contour>
  </outline>
</glyph>
<glyph name="emcyr" format="2">
  <advance width="796"/>
  <unicode hex="043C"/>
  <outline>
    <contour>
      <point x="70" y="0" type="line"/>
      <point x="157" y="0" type="line"/>
      <point x="157" y="374" type="line" smooth="yes"/>
      <point x="157" y="414"/>
      <point x="152" y="484"/>
      <point x="144" y="524" type="curve"/>
      <point x="70" y="524" type="line"/>
    </contour>
    <contour>
      <point x="398" y="164" type="line"/>
      <point x="396" y="164" type="line"/>
      <point x="390" y="178"/>
      <point x="379" y="199"/>
      <point x="373" y="210" type="curve" smooth="yes"/>
      <point x="183" y="524" type="line"/>
      <point x="123" y="524" type="line"/>
      <point x="123" y="420" type="line"/>
      <point x="157" y="420" type="line"/>
      <point x="163" y="404"/>
      <point x="172" y="386"/>
      <point x="180" y="374" type="curve" smooth="yes"/>
      <point x="370" y="60" type="line"/>
      <point x="414" y="60" type="line"/>
    </contour>
    <contour>
      <point x="382" y="60" type="line"/>
      <point x="426" y="60" type="line"/>
      <point x="616" y="374" type="line" smooth="yes"/>
      <point x="623" y="386"/>
      <point x="633" y="404"/>
      <point x="639" y="420" type="curve"/>
      <point x="673" y="420" type="line"/>
      <point x="673" y="524" type="line"/>
      <point x="613" y="524" type="line"/>
      <point x="423" y="210" type="line" smooth="yes"/>
      <point x="417" y="199"/>
      <point x="406" y="178"/>
      <point x="400" y="164" type="curve"/>
      <point x="398" y="164" type="line"/>
    </contour>
    <contour>
      <point x="640" y="0" type="line"/>
      <point x="727" y="0" type="line"/>
      <point x="727" y="524" type="line"/>
      <point x="652" y="524" type="line"/>
      <point x="646" y="481"/>
      <point x="640" y="414"/>
      <point x="640" y="374" type="curve" smooth="yes"/>
    </contour>
  </outline>
</glyph>
<glyph name="checyr" format="2">
  <advance width="586"/>
  <unicode hex="0447"/>
  <outline>
    <contour>
      <point x="69" y="524" type="line"/>
      <point x="156" y="524" type="line"/>
      <point x="156" y="397" type="line" smooth="yes"/>
      <point x="156" y="300"/>
      <point x="202" y="251"/>
      <point x="293" y="251" type="curve" smooth="yes"/>
      <point x="363" y="251"/>
      <point x="394" y="256"/>
      <point x="430" y="274" type="curve"/>
      <point x="430" y="524" type="line"/>
      <point x="517" y="524" type="line"/>
      <point x="517" y="0" type="line"/>
      <point x="430" y="0" type="line"/>
      <point x="430" y="204" type="line"/>
      <point x="383" y="180"/>
      <point x="339" y="173"/>
      <point x="262" y="173" type="curve" smooth="yes"/>
      <point x="137" y="173"/>
      <point x="69" y="249"/>
      <point x="69" y="388" type="curve" smooth="yes"/>
    </contour>
  </outline>
</glyph>
<glyph name="shacyr" format="2">
  <advance width="785"/>
  <unicode hex="0448"/>
  <outline>
    <contour>
      <point x="69" y="524" type="line"/>
      <point x="156" y="524" type="line"/>
      <point x="156" y="79" type="line"/>
      <point x="349" y="79" type="line"/>
      <point x="349" y="524" type="line"/>
      <point x="436" y="524" type="line"/>
      <point x="436" y="79" type="line"/>
      <point x="629" y="79" type="line"/>
      <point x="629" y="524" type="line"/>
      <point x="716" y="524" type="line"/>
      <point x="716" y="0" type="line"/>
      <point x="69" y="0" type="line"/>
    </contour>
  </outline>
</glyph>
<glyph name="ereversedcyr" format="2">
  <advance width="566"/>
  <unicode hex="044D"/>
  <guideline x="273" y="0" angle="90" name="h1"/>
  <anchor x="273" y="586" name="top"/>
  <outline>
    <contour>
      <point x="239" y="322" type="line"/>
      <point x="424" y="322" type="line"/>
      <point x="414" y="412"/>
      <point x="364" y="457"/>
      <point x="272" y="457" type="curve" smooth="yes"/>
      <point x="229" y="457"/>
      <point x="196" y="447"/>
      <point x="173" y="427" type="curve" smooth="yes"/>
      <point x="150" y="407"/>
      <point x="138" y="379"/>
      <point x="138" y="344" type="curve" smooth="yes"/>
      <point x="138" y="339" type="line"/>
      <point x="53" y="339" type="line"/>
      <point x="53" y="344" type="line" smooth="yes"/>
      <point x="53" y="403"/>
      <point x="72" y="450"/>
      <point x="111" y="484" type="curve" smooth="yes"/>
      <point x="150" y="518"/>
      <point x="204" y="535"/>
      <point x="273" y="535" type="curve" smooth="yes"/>
      <point x="348" y="535"/>
      <point x="407" y="514"/>
      <point x="449" y="472" type="curve" smooth="yes"/>
      <point x="492" y="430"/>
      <point x="513" y="369"/>
      <point x="513" y="289" type="curve" smooth="yes"/>
      <point x="513" y="237" type="line" smooth="yes"/>
      <point x="513" y="157"/>
      <point x="492" y="96"/>
      <point x="449" y="54" type="curve" smooth="yes"/>
      <point x="407" y="12"/>
      <point x="348" y="-9"/>
      <point x="272" y="-9" type="curve" smooth="yes"/>
      <point x="203" y="-9"/>
      <point x="150" y="8"/>
      <point x="111" y="42" type="curve" smooth="yes"/>
      <point x="72" y="75"/>
      <point x="53" y="121"/>
      <point x="53" y="179" type="curve" smooth="yes"/>
      <point x="53" y="183" type="line"/>
      <point x="138" y="183" type="line"/>
      <point x="138" y="179" type="line" smooth="yes"/>
      <point x="138" y="144"/>
      <point x="149" y="117"/>
      <point x="172" y="98" type="curve" smooth="yes"/>
      <point x="195" y="78"/>
      <point x="229" y="68"/>
      <point x="272" y="68" type="curve" smooth="yes"/>
      <point x="375" y="68"/>
      <point x="426" y="125"/>
      <point x="426" y="239" type="curve" smooth="yes"/>
      <point x="426" y="243" type="line"/>
      <point x="239" y="243" type="line"/>
    </contour>
  </outline>
</glyph>
<glyph name="djecyr" format="2">
  <advance width="585"/>
  <unicode hex="0452"/>
  <guideline x="358" y="0" angle="90" name="h1"/>
  <anchor x="358" y="586" name="top"/>
  <outline>
    <contour>
      <point x="69" y="707" type="line"/>
      <point x="156" y="707" type="line"/>
      <point x="156" y="656" type="line"/>
      <point x="359" y="656" type="line"/>
      <point x="359" y="593" type="line"/>
      <point x="156" y="593" type="line"/>
      <point x="156" y="454" type="line"/>
      <point x="193" y="504"/>
      <point x="249" y="530"/>
      <point x="322" y="530" type="curve" smooth="yes"/>
      <point x="445" y="530"/>
      <point x="517" y="456"/>
      <point x="517" y="330" type="curve" smooth="yes"/>
      <point x="517" y="0" type="line" smooth="yes"/>
      <point x="517" y="-104"/>
      <point x="463" y="-157"/>
      <point x="356" y="-157" type="curve" smooth="yes"/>
      <point x="300" y="-157" type="line"/>
      <point x="300" y="-79" type="line"/>
      <point x="346" y="-79" type="line" smooth="yes"/>
      <point x="406" y="-79"/>
      <point x="430" y="-55"/>
      <point x="430" y="6" type="curve" smooth="yes"/>
      <point x="430" y="318" type="line" smooth="yes"/>
      <point x="430" y="407"/>
      <point x="386" y="453"/>
      <point x="300" y="453" type="curve" smooth="yes"/>
      <point x="211" y="453"/>
      <point x="156" y="397"/>
      <point x="156" y="307" type="curve" smooth="yes"/>
      <point x="156" y="0" type="line"/>
      <point x="69" y="0" type="line"/>
      <point x="69" y="593" type="line"/>
      <point x="33" y="593" type="line"/>
      <point x="33" y="656" type="line"/>
      <point x="69" y="656" type="line"/>
    </contour>
  </outline>
</glyph>
<glyph name="dzhecyr" format="2">
  <advance width="586"/>
  <unicode hex="045F"/>
  <outline>
    <contour>
      <point x="69" y="524" type="line"/>
      <point x="156" y="524" type="line"/>
      <point x="156" y="79" type="line"/>
      <point x="430" y="79" type="line"/>
      <point x="430" y="524" type="line"/>
      <point x="517" y="524" type="line"/>
      <point x="517" y="0" type="line"/>
      <point x="337" y="0" type="line"/>
      <point x="337" y="-170" type="line"/>
      <point x="250" y="-170" type="line"/>
      <point x="250" y="0" type="line"/>
      <point x="69" y="0" type="line"/>
    </contour>
  </outline>
</glyph>
<glyph name="Decyr.loclBGR" format="2">
  <advance width="783"/>
  <outline>
    <component base="Elcyr.loclBGR" xOffset="40"/>
    <contour>
      <point x="10" y="83" type="line"/>
      <point x="773" y="83" type="line"/>
      <point x="773" y="-170" type="line"/>
      <point x="680" y="-170" type="line"/>
      <point x="680" y="0" type="line"/>
      <point x="103" y="0" type="line"/>
      <point x="103" y="-170" type="line"/>
      <point x="10" y="-170" type="line"/>
    </contour>
  </outline>
</glyph>
<glyph name="elcyr.loclBGR" format="2">
  <advance width="525"/>
  <outline>
    <contour>
      <point x="220" y="524" type="line"/>
      <point x="305" y="524" type="line"/>
      <point x="512" y="0" type="line"/>
      <point x="419" y="0" type="line"/>
      <point x="262" y="415" type="line"/>
      <point x="106" y="0" type="line"/>
      <point x="13" y="0" type="line"/>
    </contour>
  </outline>
</glyph>
<glyph name="gecyr.loclBGR" format="2">
  <advance width="529"/>
  <outline>
    <contour>
      <point x="265" y="531" type="curve" smooth="yes"/>
      <point x="330" y="531"/>
      <point x="382" y="517"/>
      <point x="420" y="490" type="curve" smooth="yes"/>
      <point x="459" y="463"/>
      <point x="478" y="425"/>
      <point x="478" y="376" type="curve" smooth="yes"/>
      <point x="478" y="334"/>
      <point x="464" y="302"/>
      <point x="437" y="279" type="curve" smooth="yes"/>
      <point x="410" y="256"/>
      <point x="367" y="241"/>
      <point x="309" y="234" type="curve" smooth="yes"/>
      <point x="234" y="225" type="line" smooth="yes"/>
      <point x="195" y="221"/>
      <point x="166" y="213"/>
      <point x="147" y="202" type="curve" smooth="yes"/>
      <point x="129" y="191"/>
      <point x="120" y="174"/>
      <point x="120" y="151" type="curve" smooth="yes"/>
      <point x="120" y="124"/>
      <point x="132" y="103"/>
      <point x="157" y="89" type="curve" smooth="yes"/>
      <point x="182" y="74"/>
      <point x="217" y="67"/>
      <point x="261" y="67" type="curve" smooth="yes"/>
      <point x="309" y="67"/>
      <point x="345" y="75"/>
      <point x="368" y="92" type="curve" smooth="yes"/>
      <point x="391" y="108"/>
      <point x="403" y="130"/>
      <point x="403" y="158" type="curve" smooth="yes"/>
      <point x="403" y="160" type="line"/>
      <point x="486" y="160" type="line"/>
      <point x="486" y="157" type="line" smooth="yes"/>
      <point x="486" y="106"/>
      <point x="466" y="67"/>
      <point x="427" y="38" type="curve" smooth="yes"/>
      <point x="388" y="9"/>
      <point x="334" y="-6"/>
      <point x="265" y="-6" type="curve" smooth="yes"/>
      <point x="194" y="-6"/>
      <point x="139" y="8"/>
      <point x="98" y="37" type="curve" smooth="yes"/>
      <point x="57" y="65"/>
      <point x="37" y="105"/>
      <point x="37" y="156" type="curve" smooth="yes"/>
      <point x="37" y="198"/>
      <point x="51" y="231"/>
      <point x="80" y="254" type="curve" smooth="yes"/>
      <point x="109" y="277"/>
      <point x="152" y="292"/>
      <point x="211" y="299" type="curve" smooth="yes"/>
      <point x="290" y="309" type="line" smooth="yes"/>
      <point x="329" y="313"/>
      <point x="356" y="321"/>
      <point x="371" y="332" type="curve" smooth="yes"/>
      <point x="387" y="343"/>
      <point x="395" y="360"/>
      <point x="395" y="382" type="curve" smooth="yes"/>
      <point x="395" y="407"/>
      <point x="384" y="427"/>
      <point x="362" y="441" type="curve" smooth="yes"/>
      <point x="341" y="454"/>
      <point x="308" y="461"/>
      <point x="264" y="461" type="curve" smooth="yes"/>
      <point x="221" y="461"/>
      <point x="187" y="454"/>
      <point x="164" y="439" type="curve" smooth="yes"/>
      <point x="141" y="424"/>
      <point x="129" y="403"/>
      <point x="129" y="375" type="curve" smooth="yes"/>
      <point x="129" y="372" type="line"/>
      <point x="46" y="372" type="line"/>
      <point x="46" y="376" type="line" smooth="yes"/>
      <point x="46" y="423"/>
      <point x="65" y="461"/>
      <point x="104" y="489" type="curve" smooth="yes"/>
      <point x="143" y="517"/>
      <point x="197" y="531"/>
    </contour>
  </outline>
</glyph>
<glyph name="hardcyr.loclBGR" format="2">
  <advance width="680"/>
  <outline>
    <contour>
      <point x="420" y="332" type="curve" smooth="yes"/>
      <point x="366" y="332"/>
      <point x="329" y="329"/>
      <point x="266" y="302" type="curve"/>
      <point x="266" y="203" type="line"/>
      <point x="266" y="109"/>
      <point x="319" y="68"/>
      <point x="395" y="68" type="curve" smooth="yes"/>
      <point x="483" y="68"/>
      <point x="540" y="117"/>
      <point x="540" y="194" type="curve" smooth="yes"/>
      <point x="540" y="276"/>
      <point x="491" y="332"/>
    </contour>
    <contour>
      <point x="0" y="524" type="line"/>
      <point x="266" y="524" type="line"/>
      <point x="266" y="381" type="line"/>
      <point x="333" y="408"/>
      <point x="374" y="411"/>
      <point x="431" y="411" type="curve" smooth="yes"/>
      <point x="549" y="411"/>
      <point x="627" y="328"/>
      <point x="627" y="201" type="curve" smooth="yes"/>
      <point x="627" y="74"/>
      <point x="534" y="-9"/>
      <point x="393" y="-9" type="curve" smooth="yes"/>
      <point x="260" y="-9"/>
      <point x="179" y="75"/>
      <point x="179" y="203" type="curve"/>
      <point x="179" y="445" type="line"/>
      <point x="0" y="445" type="line"/>
    </contour>
  </outline>
</glyph>
<glyph name="seven.dnom" format="2">
  <advance width="320"/>
  <outline>
    <contour>
      <point x="310" y="431" type="line"/>
      <point x="310" y="368" type="line"/>
      <point x="134" y="-11" type="line"/>
      <point x="47" y="-11" type="line"/>
      <point x="220" y="359" type="line"/>
      <point x="12" y="359" type="line"/>
      <point x="12" y="431" type="line"/>
    </contour>
  </outline>
</glyph>
<glyph name="shacyr.loclBGR" format="2">
  <advance width="931"/>
  <outline>
    <contour>
      <point x="863" y="524" type="line"/>
      <point x="776" y="524" type="line"/>
      <point x="776" y="217" type="line" smooth="yes"/>
      <point x="776" y="127"/>
      <point x="721" y="71"/>
      <point x="632" y="71" type="curve" smooth="yes"/>
      <point x="553" y="71"/>
      <point x="509" y="119"/>
      <point x="509" y="205" type="curve" smooth="yes"/>
      <point x="509" y="524" type="line"/>
      <point x="421" y="524" type="line"/>
      <point x="421" y="208" type="line" smooth="yes"/>
      <point x="421" y="120"/>
      <point x="372" y="71"/>
      <point x="283" y="71" type="curve" smooth="yes"/>
      <point x="199" y="71"/>
      <point x="155" y="117"/>
      <point x="155" y="206" type="curve" smooth="yes"/>
      <point x="155" y="524" type="line"/>
      <point x="68" y="524" type="line"/>
      <point x="68" y="194" type="line" smooth="yes"/>
      <point x="68" y="67"/>
      <point x="140" y="-6"/>
      <point x="266" y="-6" type="curve" smooth="yes"/>
      <point x="348" y="-6"/>
      <point x="406" y="20"/>
      <point x="450" y="78" type="curve"/>
      <point x="482" y="24"/>
      <point x="541" y="-6"/>
      <point x="611" y="-6" type="curve" smooth="yes"/>
      <point x="683" y="-6"/>
      <point x="740" y="20"/>
      <point x="777" y="70" type="curve"/>
      <point x="777" y="0" type="line"/>
      <point x="863" y="0" type="line"/>
    </contour>
  </outline>
</glyph>
<glyph name="softcyr.loclBGR" format="2">
  <advance width="585"/>
  <outline>
    <contour>
      <point x="69" y="203" type="line"/>
      <point x="156" y="203" type="line"/>
      <point x="156" y="524" type="line"/>
      <point x="69" y="524" type="line"/>
    </contour>
    <contour>
      <point x="69" y="203" type="line"/>
      <point x="69" y="75"/>
      <point x="150" y="-9"/>
      <point x="283" y="-9" type="curve" smooth="yes"/>
      <point x="424" y="-9"/>
      <point x="517" y="74"/>
      <point x="517" y="201" type="curve" smooth="yes"/>
      <point x="517" y="328"/>
      <point x="439" y="411"/>
      <point x="321" y="411" type="curve" smooth="yes"/>
      <point x="258" y="411"/>
      <point x="215" y="407"/>
      <point x="136" y="372" type="curve"/>
      <point x="136" y="293" type="line"/>
      <point x="211" y="328"/>
      <point x="251" y="332"/>
      <point x="310" y="332" type="curve" smooth="yes"/>
      <point x="381" y="332"/>
      <point x="430" y="276"/>
      <point x="430" y="194" type="curve" smooth="yes"/>
      <point x="430" y="117"/>
      <point x="373" y="68"/>
      <point x="285" y="68" type="curve" smooth="yes"/>
      <point x="209" y="68"/>
      <point x="156" y="109"/>
      <point x="156" y="203" type="curve"/>
    </contour>
  </outline>
</glyph>
<glyph name="three.tosf" format="2">
  <advance width="562"/>
  <outline>
    <contour>
      <point x="59" y="-1" type="curve" smooth="yes"/>
      <point x="59" y="8" type="line"/>
      <point x="149" y="8" type="line"/>
      <point x="149" y="0" type="line" smooth="yes"/>
      <point x="149" y="-32"/>
      <point x="160" y="-56"/>
      <point x="183" y="-72" type="curve" smooth="yes"/>
      <point x="205" y="-89"/>
      <point x="237" y="-97"/>
      <point x="280" y="-97" type="curve" smooth="yes"/>
      <point x="322" y="-97"/>
      <point x="354" y="-87"/>
      <point x="377" y="-68" type="curve" smooth="yes"/>
      <point x="400" y="-49"/>
      <point x="411" y="-22"/>
      <point x="411" y="15" type="curve" smooth="yes"/>
      <point x="411" y="32" type="line" smooth="yes"/>
      <point x="411" y="70"/>
      <point x="399" y="99"/>
      <point x="376" y="119" type="curve" smooth="yes"/>
      <point x="352" y="139"/>
      <point x="317" y="149"/>
      <point x="271" y="149" type="curve" smooth="yes"/>
      <point x="229" y="149" type="line"/>
      <point x="229" y="231" type="line"/>
      <point x="270" y="231" type="line" smooth="yes"/>
      <point x="311" y="231"/>
      <point x="343" y="240"/>
      <point x="365" y="259" type="curve" smooth="yes"/>
      <point x="387" y="277"/>
      <point x="398" y="303"/>
      <point x="398" y="338" type="curve" smooth="yes"/>
      <point x="398" y="350" type="line" smooth="yes"/>
      <point x="398" y="383"/>
      <point x="388" y="409"/>
      <point x="367" y="427" type="curve" smooth="yes"/>
      <point x="346" y="444"/>
      <point x="316" y="453"/>
      <point x="276" y="453" type="curve" smooth="yes"/>
      <point x="237" y="453"/>
      <point x="207" y="446"/>
      <point x="187" y="432" type="curve" smooth="yes"/>
      <point x="166" y="417"/>
      <point x="156" y="394"/>
      <point x="156" y="362" type="curve" smooth="yes"/>
      <point x="156" y="342" type="line"/>
      <point x="68" y="342" type="line"/>
      <point x="68" y="364" type="line" smooth="yes"/>
      <point x="68" y="417"/>
      <point x="87" y="459"/>
      <point x="124" y="489" type="curve" smooth="yes"/>
      <point x="161" y="518"/>
      <point x="213" y="533"/>
      <point x="280" y="533" type="curve" smooth="yes"/>
      <point x="346" y="533"/>
      <point x="398" y="518"/>
      <point x="435" y="487" type="curve" smooth="yes"/>
      <point x="472" y="456"/>
      <point x="490" y="412"/>
      <point x="490" y="357" type="curve" smooth="yes"/>
      <point x="490" y="343" type="line" smooth="yes"/>
      <point x="490" y="308"/>
      <point x="481" y="278"/>
      <point x="463" y="254" type="curve" smooth="yes"/>
      <point x="445" y="229"/>
      <point x="420" y="211"/>
      <point x="389" y="198" type="curve"/>
      <point x="426" y="186"/>
      <point x="455" y="166"/>
      <point x="475" y="137" type="curve" smooth="yes"/>
      <point x="494" y="108"/>
      <point x="504" y="72"/>
      <point x="504" y="29" type="curve" smooth="yes"/>
      <point x="504" y="15" type="line" smooth="yes"/>
      <point x="504" y="-45"/>
      <point x="484" y="-92"/>
      <point x="444" y="-126" type="curve" smooth="yes"/>
      <point x="403" y="-161"/>
      <point x="348" y="-178"/>
      <point x="278" y="-178" type="curve" smooth="yes"/>
      <point x="209" y="-178"/>
      <point x="156" y="-163"/>
      <point x="117" y="-132" type="curve" smooth="yes"/>
      <point x="78" y="-101"/>
      <point x="59" y="-58"/>
    </contour>
  </outline>
</glyph>
<glyph name="tsecyr.loclBGR" format="2">
  <advance width="570"/>
  <outline>
    <component base="icyr.loclBGR" xOffset="-1"/>
    <contour>
      <point x="483" y="-170" type="line"/>
      <point x="570" y="-170" type="line"/>
      <point x="570" y="79" type="line"/>
      <point x="463" y="79" type="line"/>
      <point x="463" y="0" type="line"/>
      <point x="483" y="0" type="line"/>
    </contour>
  </outline>
</glyph>
<glyph name="vecyr.loclBGR" format="2">
  <advance width="585"/>
  <outline>
    <contour>
      <point x="69" y="203" type="line"/>
      <point x="69" y="77"/>
      <point x="163" y="-9"/>
      <point x="302" y="-9" type="curve" smooth="yes"/>
      <point x="432" y="-9"/>
      <point x="517" y="78"/>
      <point x="517" y="211" type="curve" smooth="yes"/>
      <point x="517" y="300"/>
      <point x="474" y="373"/>
      <point x="410" y="392" type="curve"/>
      <point x="410" y="398" type="line"/>
      <point x="463" y="425"/>
      <point x="497" y="466"/>
      <point x="497" y="533" type="curve" smooth="yes"/>
      <point x="497" y="638"/>
      <point x="412" y="707"/>
      <point x="293" y="707" type="curve" smooth="yes"/>
      <point x="148" y="707"/>
      <point x="69" y="625"/>
      <point x="69" y="489" type="curve"/>
      <point x="156" y="489" type="line"/>
      <point x="156" y="572"/>
      <point x="203" y="628"/>
      <point x="285" y="628" type="curve" smooth="yes"/>
      <point x="356" y="628"/>
      <point x="410" y="588"/>
      <point x="410" y="528" type="curve" smooth="yes"/>
      <point x="410" y="468"/>
      <point x="363" y="422"/>
      <point x="301" y="422" type="curve" smooth="yes"/>
      <point x="136" y="422" type="line"/>
      <point x="136" y="343" type="line"/>
      <point x="310" y="343" type="line" smooth="yes"/>
      <point x="385" y="343"/>
      <point x="430" y="288"/>
      <point x="430" y="196" type="curve" smooth="yes"/>
      <point x="430" y="114"/>
      <point x="385" y="70"/>
      <point x="302" y="70" type="curve" smooth="yes"/>
      <point x="222" y="70"/>
      <point x="156" y="123"/>
      <point x="156" y="203" type="curve"/>
    </contour>
    <contour>
      <point x="69" y="203" type="line"/>
      <point x="156" y="203" type="line"/>
      <point x="156" y="489" type="line"/>
      <point x="69" y="489" type="line"/>
    </contour>
  </outline>
</glyph>
<glyph name="yucyr.loclBGR" format="2">
  <advance width="765"/>
  <guideline x="119" y="0" angle="90" name="h1"/>
  <guideline x="459" y="0" angle="90" name="h1"/>
  <anchor x="459" y="586" name="top"/>
  <outline>
    <component base="o" xOffset="180"/>
    <contour>
      <point x="69" y="0" type="line"/>
      <point x="156" y="0" type="line"/>
      <point x="156" y="707" type="line"/>
      <point x="69" y="707" type="line"/>
    </contour>
    <contour>
      <point x="106" y="243" type="line"/>
      <point x="280" y="243" type="line"/>
      <point x="280" y="322" type="line"/>
      <point x="106" y="322" type="line"/>
    </contour>
  </outline>
</glyph>
<glyph name="zero.dnom" format="2">
  <advance width="359"/>
  <outline>
    <contour>
      <point x="333" y="147" type="line" smooth="yes"/>
      <point x="333" y="76"/>
      <point x="309" y="-17"/>
      <point x="180" y="-17" type="curve" smooth="yes"/>
      <point x="110" y="-17"/>
      <point x="28" y="11"/>
      <point x="28" y="147" type="curve" smooth="yes"/>
      <point x="28" y="276" type="line" smooth="yes"/>
      <point x="28" y="312"/>
      <point x="30" y="437"/>
      <point x="180" y="437" type="curve" smooth="yes"/>
      <point x="248" y="437"/>
      <point x="333" y="411"/>
      <point x="333" y="276" type="curve" smooth="yes"/>
    </contour>
    <contour>
      <point x="180" y="55" type="curve" smooth="yes"/>
      <point x="216" y="55"/>
      <point x="250" y="65"/>
      <point x="250" y="151" type="curve" smooth="yes"/>
      <point x="250" y="268" type="line" smooth="yes"/>
      <point x="250" y="353"/>
      <point x="216" y="365"/>
      <point x="180" y="365" type="curve" smooth="yes"/>
      <point x="145" y="365"/>
      <point x="112" y="353"/>
      <point x="112" y="268" type="curve" smooth="yes"/>
      <point x="112" y="151" type="line" smooth="yes"/>
      <point x="112" y="66"/>
      <point x="145" y="55"/>
    </contour>
  </outline>
</glyph>
